<svg xmlns="http://www.w3.org/2000/svg">
  <g>
    <path fill="#9391F7" d="M100,50C100,22.4,77.6,0,50,0S0,22.4,0,50s22.4,50,50,50S100,77.6,100,50L100,50z"/>
    <path fill="#FFFFFF" d="M40.7,52.4c4.3-0.7,7.2-4.7,6.5-9c-0.7-4.3-4.7-7.2-9-6.5c-4.3,0.7-7.2,4.7-6.5,9C32.4,50.2,36.4,53.1,40.7,52.4L40.7,52.4z M61.3,52.4c4.3-0.7,7.2-4.7,6.5-9c-0.7-4.3-4.7-7.2-9-6.5c-4.3,0.7-7.2,4.7-6.5,9C52.9,50.2,57,53.1,61.3,52.4L61.3,52.4z"/>
    <path fill="#FFFFFF" d="M49.7,12.2C28.4,12.2,11,29.9,11,51.6h9.9c0-16.3,12.8-29.5,28.8-29.5c16,0,28.8,13.2,28.8,29.5h9.9C88.4,29.9,71,12.2,49.7,12.2L49.7,12.2L49.7,12.2z"/>
  </g>
</svg>
