<svg xmlns="http://www.w3.org/2000/svg">
  <g>
    <path fill="#0033AD" d="M27,47c-0.2,3.7,2.6,6.9,6.3,7.1c0.1,0,0.3,0,0.4,0c3.7,0,6.7-3,6.7-6.7c0-3.7-3-6.7-6.7-6.7C30.3,39.7,27.2,42.8,27,47z"/>
    <path fill="#0033AD" d="M2.3,44.5c-1.2-0.1-2.2,0.8-2.3,2s0.8,2.2,2,2.3c1.2,0.1,2.2-0.8,2.3-2C4.4,45.6,3.5,44.6,2.3,44.5z"/>
    <path fill="#0033AD" d="M27,6.7c1.1-0.5,1.5-1.8,0.9-2.9c-0.5-1.1-1.8-1.5-2.9-0.9c-1.1,0.5-1.5,1.8-0.9,2.9C24.6,6.8,25.9,7.2,27,6.7z"/>
    <path fill="#0033AD" d="M33.4,18.7c1.6-0.8,2.3-2.8,1.5-4.4s-2.8-2.3-4.4-1.5c-1.6,0.8-2.3,2.8-1.5,4.4C29.7,18.7,31.8,19.4,33.4,18.7z"/>
    <path fill="#0033AD" d="M10.7,26.5c1.3,0.8,2.9,0.5,3.8-0.8c0.8-1.3,0.5-2.9-0.8-3.8c-1.3-0.8-2.9-0.5-3.8,0.8C9,24.3,9.3,25.7,10.7,26.5z"/>
    <path fill="#0033AD" d="M14.7,42.7c-1.8-0.1-3.4,1.3-3.5,3.1s1.3,3.4,3.1,3.5c1.8,0.1,3.4-1.3,3.5-3.1C18,45.4,16.5,42.8,14.7,42.7z"/>
    <path fill="#0033AD" d="M11,64.5c-1.3,0.7-1.9,2.3-1.2,3.7c0.7,1.3,2.3,1.9,3.7,1.2c1.3-0.7,1.9-2.3,1.2-3.7C14,64.7,12.4,64.1,11,64.5z"/>
    <path fill="#0033AD" d="M23.9,35.7c1.8,1.2,4.2,0.7,5.4-1.1c1.2-1.8,0.7-4.2-1.1-5.4c-1.8-1.2-4.2-0.7-5.4,1.1C22.1,31.9,22.6,34.5,23.9,35.7z"/>
    <path fill="#0033AD" d="M64.7,18.2c1.5,1,3.6,0.6,4.6-0.9s0.6-3.6-0.9-4.6c-1.5-1-3.6-0.6-4.6,0.9C62.7,15.1,63.2,17.2,64.7,18.2z"/>
    <path fill="#0033AD" d="M71.5,6.4c1,0.7,2.3,0.4,3-0.6s0.4-2.3-0.6-3c-1-0.7-2.3-0.4-3,0.6C70.2,4.5,70.5,5.7,71.5,6.4z"/>
    <path fill="#0033AD" d="M65.3,38.8c-3.7-0.2-6.8,2.6-7,6.3c-0.2,3.7,2.6,6.8,6.3,7c0.1,0,0.3,0,0.4,0c3.7,0,6.7-3,6.7-6.7C71.7,41.7,68.6,38.6,65.3,38.8z"/>
    <path fill="#0033AD" d="M35.5,34.9c1.1,2.2,3.4,3.7,5.9,3.7c3.7,0,6.7-3,6.7-6.7c0-1-0.2-2.1-0.7-3c-1.7-3.3-5.6-4.6-8.9-2.9C35.3,28.3,34.4,32.7,35.5,34.9z"/>
    <path fill="#0033AD" d="M87.5,26.5c1.3-0.7,1.9-2.3,1.2-3.7c-0.7-1.3-2.3-1.9-3.7-1.2c-1.3,0.7-1.9,2.3-1.2,3.7C84.3,26.7,86.2,27.3,87.5,26.5z"/>
    <path fill="#0033AD" d="M70.7,28.5c-1.9,1-2.7,3.3-1.7,5.2c1,1.9,3.3,2.7,5.2,1.7c1.9-1,2.7-3.3,1.7-5.2C74.9,28.1,72.6,27.5,70.7,28.5z"/>
    <path fill="#0033AD" d="M49.1,5.5c1.5,0.1,2.8-1.1,2.9-2.6s-1.1-2.8-2.6-2.9c-1.5-0.1-2.8,1.1-2.9,2.6C46.5,4.1,47.6,5.4,49.1,5.5z"/>
    <path fill="#0033AD" d="M49,22.6c2.2,0.1,4-1.5,4.1-3.7c0.1-2.2-1.5-4-3.7-4.1c-2.2-0.1-4,1.5-4.1,3.7C45.3,20.8,46.8,22.5,49,22.6z"/>
    <path fill="#0033AD" d="M27.8,62.6c1.9-1,2.7-3.3,1.7-5.2c-1-1.9-3.3-2.7-5.2-1.7c-1.9,1-2.7,3.3-1.7,5.2C23.6,62.4,25.9,63,27.8,62.6z"/>
    <path fill="#0033AD" d="M51.5,28.3c-2,3.1-1.2,7.2,1.9,9.2c3.1,2,7.2,1.2,9.2-1.9c2-3.1,1.2-7.2-1.9-9.2c-1.1-0.7-2.3-1.1-3.6-1.1C54.8,24.3,52.9,26.6,51.5,28.3z"/>
    <path fill="#0033AD" d="M63.1,56.1c-1.7-3.3-5.6-4.6-8.9-2.9c-3.3,1.7-4.6,5.6-2.9,8.9c1.7,3.3,5.6,4.6,8.9,2.9c3.3-1.7,4.6-5.6,2.9-8.9C63.2,56.2,63.2,56.2,63.1,56.1z"/>
    <path fill="#0033AD" d="M74.6,55.6c-1.8-1.2-4.2-0.7-5.4,1.1c-1.2,1.8-0.7,4.2,1.1,5.4c1.8,1.2,4.2,0.7,5.4-1.1C76.4,59.3,76,56.8,74.6,55.6z"/>
    <path fill="#0033AD" d="M87.3,45.7c0.1-1.8-1.3-3.4-3.1-3.5c-1.8-0.1-3.4,1.3-3.5,3.1c-0.1,1.8,1.3,3.4,3.1,3.5C85.6,49,87.2,47.5,87.3,45.7z"/>
    <path fill="#0033AD" d="M96.5,43.7c-1.2-0.1-2.2,0.8-2.3,2s0.8,2.2,2,2.3c1.2,0.1,2.2-0.8,2.3-2C98.7,45.8,97.7,44.8,96.5,43.7z"/>
    <path fill="#0033AD" d="M87.8,64.5c-1.3-0.8-2.9-0.5-3.8,0.8c-0.8,1.3-0.5,2.9,0.8,3.8c1.3,0.8,2.9,0.5,3.8-0.8C89.4,67.3,89.1,65.3,87.8,64.5z"/>
    <path fill="#0033AD" d="M27,84.7c-1-0.7-2.3-0.4-3,0.6c-0.7,1-0.4,2.3,0.6,3c1,0.7,2.3,0.4,3-0.6C28.3,87.4,28,86.2,27,84.7z"/>
    <path fill="#0033AD" d="M71.8,84.3c-1.1,0.5-1.5,1.8-0.9,2.9c0.5,1.1,1.8,1.5,2.9,0.9c1.1-0.5,1.5-1.8,0.9-2.9C73.7,84.2,72.4,83.8,71.8,84.3z"/>
    <path fill="#0033AD" d="M47.1,62.7c2-3.1,1.2-7.2-1.9-9.2c-3.1-2-7.2-1.2-9.2,1.9s-1.2,7.2,1.9,9.2c1.1,0.7,2.3,1.1,3.6,1.1C44.4,65.7,46.3,63.4,47.1,62.7z"/>
    <path fill="#0033AD" d="M33.7,73.1c-1.5-1-3.6-0.6-4.6,0.9c-1,1.5-0.6,3.6,0.9,4.6s3.6,0.6,4.6-0.9C35.6,76.2,35.1,74.1,33.7,73.1z"/>
    <path fill="#0033AD" d="M49.2,85.5c-1.5-0.1-2.8,1.1-2.9,2.6s1.1,2.8,2.6,2.9c1.5,0.1,2.8-1.1,2.9-2.6C52,87.1,50.7,85.6,49.2,85.5z"/>
    <path fill="#0033AD" d="M49.3,68.3c-2.2-0.1-4,1.5-4.1,3.7c-0.1,2.2,1.5,4,3.7,4.1c2.2,0.4,4-1.5,4.1-3.7C53.2,70.5,51.5,68.4,49.3,68.3z"/>
    <path fill="#0033AD" d="M65.1,72.6c-1.6,0.8-2.3,2.8-1.5,4.4c0.8,1.6,2.8,2.3,4.4,1.5c1.6-0.8,2.3-2.8,1.5-4.4C68.7,72.5,66.7,71.8,65.1,72.6z"/>
  </g>
</svg>
