<svg xmlns="http://www.w3.org/2000/svg">
  <g>
    <path d="M77.3,33.5h-8.8c-1,0-2-0.4-2.7-1.2l-3.6-4c-0.5-0.6-1.3-1-2.1-1s-1.6,0.4-2.1,1l-3.1,3.5c-1,1.1-2.5,1.8-4,1.8H2.6c-1.4,3.9-2.3,8.1-2.6,12.4h45.6c0.8,0,1.6-0.3,2.1-0.9l4.2-4.4c0.5-0.6,1.3-0.9,2-0.9h0.2c0.8,0,1.6,0.4,2.1,1l3.6,4c0.7,0.8,1.7,1.2,2.7,1.2h37.2c-0.4-4.3-1.2-8.5-2.6-12.4L77.3,33.5L77.3,33.5z"/>
    <path d="M27.6,71.9c0.8,0,1.6-0.3,2.1-0.9l4.2-4.4c0.5-0.6,1.3-0.9,2-0.9h0.2c0.8,0,1.6,0.4,2.1,0.9l3.6,4c0.7,0.8,1.7,1.2,2.7,1.2h50.5c1.9-3.9,3.3-8.1,4.1-12.5H50.7c-1,0-2-0.4-2.7-1.2l-3.6-4c-0.5-0.6-1.3-0.9-2.1-0.9s-1.6,0.4-2.1,0.9l-3.1,3.5c-1,1.1-2.5,1.8-4,1.8H0.7c0.8,4.4,2.2,8.6,4.1,12.5L27.6,71.9L27.6,71.9z"/>
    <path d="M63.4,20h-6.3c-1,0-2-0.4-2.7-1.2l-3.6-4c-0.5-0.6-1.3-1-2.1-1s-1.6,0.4-2.1,1l-3.1,3.5c-1,1.1-2.5,1.8-4,1.8H9.9C19.1,7.9,33.8,0,50,0s30.9,7.9,40.1,20H63.4z"/>
    <path d="M44.2,84.3h-13.1c-1,0-2-0.4-2.7-1.2l-3.6-4c-0.5-0.6-1.3-0.9-2.1-0.9s-1.6,0.4-2.1,0.9l-3.1,3.5c-1,1.1-2.5,1.8-4,1.8h-0.2C22.4,94.2,35.6,100,50,100s28.2-5.8,37.2-15.7H44.2z"/>
  </g>
</svg> 