<svg
  xmlns="http://www.w3.org/2000/svg"
  xmlns:xlink="http://www.w3.org/1999/xlink"
  viewBox="0 0 512 512"
>
  <path
    fill="#fed29f"
    d="M145.6020962,485.2792119l11.9576529-55.0438359c13.3364938-61.3920596-33.6053308-119.3804311-96.6415021-119.3804311H6.1435574c17.2740279,77.138222,69.6024217,141.1017483,139.4585389,174.424267Z"
  />
  <path
    fill="#fed29f"
    d="M169.6256525,495.2670247c26.9838582,9.6355121,56.0641426,14.8852972,86.3735569,14.8852972,122.149607,0,224.3171725-85.2480404,249.8566617-199.297377h-167.0987784c-75.3207993,0-140.4417547,52.3480028-156.3776443,125.7047242l-12.7537959,58.7073556Z"
  />
  <path
    fill="#fed29f"
    d="M510.2128935,285.3457415c1.1797482-9.9336267,1.7871065-20.0426132,1.7871065-30.293496,0-133.8269792-103.4158216-243.5851854-234.9570122-254.2499496l-35.8796331,165.1645957c-13.3372996,61.3920596,33.6046999,119.37885,96.6403733,119.37885h172.4091655Z"
  />
  <path
    fill="#fed29f"
    d="M251.0252351,0C111.9360265,2.6419036,0,115.8211557,0,255.0522455c0,10.2508828.6066652,20.3598693,1.7861867,30.293496h58.1799879c75.3203166,0,140.4423818-52.348018,156.3782715-125.7047394L251.0252351,0Z"
  />
</svg>
