<svg xmlns="http://www.w3.org/2000/svg" version="1.1" viewBox="0 0 800 800">
  <circle cx="400" cy="400" r="400" fill="#ce6533" />
  <path
    d="M117.3,229.2c-2.8-7.5-.9-15.9,4.7-21.6l77-77c5.7-5.7,14.1-7.5,21.6-4.7l164.2,60.3c4,1.5,6.7,5.3,6.7,9.6v35.9c0,2.7-1.1,5.3-3,7.2l-40,40c-2.8,2.8-7,3.8-10.8,2.4l-44.1-16.3-48.5-17.9c-4.1-1.5-8.1,2.5-6.6,6.6l34.1,92.6c1.4,3.8.5,8-2.4,10.8l-35.5,35.5c-4,4-4,10.5,0,14.5l35.7,35.7c2.8,2.8,3.8,7,2.4,10.8l-34.1,92.6c-1.5,4.1,2.5,8.1,6.6,6.6l92.6-34.1c3.8-1.4,8-.5,10.8,2.4l39.8,39.8c1.9,1.9,3,4.5,3,7.2v36c0,4.3-2.7,8.1-6.7,9.6l-164,60.5c-7.5,2.8-15.9.9-21.6-4.7l-77-77c-5.7-5.7-7.5-14.1-4.7-21.6l60.3-163.4c1.7-4.6,1.7-9.6,0-14.2l-60.5-163.9Z"
    fill="#fff"
  />
  <path
    d="M682.7,570.8c2.8,7.5.9,15.9-4.7,21.6l-77,77c-5.7,5.7-14.1,7.5-21.6,4.7l-164.2-60.3c-4-1.5-6.7-5.3-6.7-9.6v-35.9c0-2.7,1.1-5.3,3-7.2l40-40c2.8-2.8,7-3.8,10.8-2.4l44.1,16.3,48.5,17.9c4.1,1.5,8.1-2.5,6.6-6.6l-34.1-92.6c-1.4-3.8-.5-8,2.4-10.8l35.5-35.5c4-4,4-10.5,0-14.5l-35.7-35.7c-2.8-2.8-3.8-7-2.4-10.8l34.1-92.6c1.5-4.1-2.5-8.1-6.6-6.6l-92.6,34.1c-3.8,1.4-8,.5-10.8-2.4l-39.8-39.8c-1.9-1.9-3-4.5-3-7.2v-36c0-4.3,2.7-8.1,6.7-9.6l164-60.5c7.5-2.8,15.9-.9,21.6,4.7l77,77c5.7,5.7,7.5,14.1,4.7,21.6l-60.3,163.4c-1.7,4.6-1.7,9.6,0,14.2l60.5,163.9h0Z"
    fill="#fff"
  />
</svg>
