<svg xmlns="http://www.w3.org/2000/svg">
  <g>
    <circle fill="#814625" cx="50" cy="50" r="50"/>
    <path fill="#FFFFFF" d="M48.1,47.5c-0.1-0.2-0.1-0.3-0.1-0.5c0-0.1,0-0.2-0.1-0.2c0-0.2-0.1-0.3-0.1-0.5v0c0.8-1.1,4.5-7.1,0.3-10.9c-4.7-4.2-10.2,1.3-10.2,1.3l0,0c-2.5-0.7-5.2-0.8-7.8,0c0,0,0,0,0,0c0,0-5.5-5.5-10.2-1.3c-4.7,4.2-0.6,11,0,11.1c0,0,0,0,0,0c-0.1,0.2-0.1,0.3-0.1,0.5c-0.5,2.9-4,3.8-4,8.9c0,5.1,3.6,9.2,11,9.2h3c0,0,0,0,0,0c0,0,1.3,1.7,3.8,1.7c2.4,0,4-1.7,4-1.7c0,0,0,0,0,0h2.9c7.4,0,11-4.1,11-9.2C51.9,51.2,49,50.1,48.1,47.5z"/>
    <path fill="#FFFFFF" d="M83.4,41.7c0,0,0.5-4.9-3.6-5.9v-2h-3.2v1.9c-4.4,0.9-3.8,6-3.8,6v0.8c0,0-0.6,5.1,3.8,6h0v4.2c-4.7,0.8-4,6.1-4,6.1v0.8c0,0-0.6,5.1,3.8,6v1.9h3.2v-1.9c4.2-1.1,3.6-6,3.6-6c0.2,0,0.3-0.1,0.3-0.3v-0.2c0-0.2-0.1-0.3-0.3-0.3c0,0,0.5-4.9-3.6-5.9v-4.3h-0.1c4.4-0.9,3.8-6,3.8-6c0.2,0,0.3-0.1,0.3-0.3v-0.2c0-0.2-0.1-0.3-0.3-0.3H83.4z M80.8,58.7h-0.3c-0.2,0-0.3,0.1-0.3,0.3v0.2c0,0.2,0.1,0.3,0.3,0.3h0.3c0,3.1-1.1,3.6-1.4,3.7c-0.1,0-0.1,0-0.1-0.1v-1c0-0.5-0.4-0.8-0.7-1c-0.4-0.2-1.1-0.2-1.4,0c-0.4,0.2-0.7,0.5-0.7,1v1c0,0.1-0.1,0.1-0.1,0.1c-0.4-0.1-1.4-0.6-1.4-3.7v-0.8c0-3.1,1.1-3.6,1.4-3.7c0.1,0,0.1,0,0.1,0.1v1c0,0.5,0.4,0.8,0.7,1c0.4,0.2,1.1,0.2,1.4,0c0.4-0.2,0.7-0.5,0.7-1v-1c0-0.1,0.1-0.1,0.1-0.1c0.4,0.1,1.4,0.6,1.4,3.7V58.7z M80.6,41.7h0.3c0,3.1-1.1,3.6-1.4,3.7c-0.1,0-0.1,0-0.1-0.1v-1c0-0.5-0.4-0.8-0.7-1c-0.4-0.2-1.1-0.2-1.4,0c-0.4,0.2-0.7,0.5-0.7,1v1c0,0.1-0.1,0.1-0.1,0.1c-0.4-0.1-1.4-0.6-1.4-3.7v-0.8c0-3.1,1.1-3.6,1.4-3.7c0.1,0,0.1,0,0.1,0.1v1c0,0.5,0.4,0.8,0.7,1c0.4,0.2,1.1,0.2,1.4,0c0.4-0.2,0.7-0.5,0.7-1v-1c0-0.1,0.1-0.1,0.1-0.1c0.4,0.1,1.4,0.6,1.4,3.7V41.7z"/>
    <path fill="#FFFFFF" d="M67.2,50.3c0,0,0.6-5.1-3.9-6v-4.6c4.3-1,3.8-5.4,3.8-5.4c0,0-2.4,0-2.4,0c0,3.1-1.1,3.6-1.4,3.7c-0.1,0-0.1,0-0.1-0.1v-1c0-0.5-0.4-0.8-0.7-1c-0.4-0.2-1.1-0.2-1.4,0c-0.4,0.2-0.7,0.5-0.7,1v1c0,0.1-0.1,0.1-0.1,0.1c-0.4-0.1-1.4-0.6-1.4-3.7c0,0-2.4,0-2.4,0c0,0-0.6,5.2,4,5.5v4.6c-4.5,0.9-3.9,6.1-3.9,6.1v0.8c0,0-0.6,5.1,3.9,6v4.3c-4.7,0.8-4,6.1-4,6.1c0,0,2.4,0,2.4,0c0-3.1,1.1-3.6,1.4-3.7c0.1,0,0.1,0,0.1,0.1v1c0,0.5,0.4,0.8,0.7,1c0.4,0.2,1.1,0.2,1.4,0c0.4-0.2,0.7-0.5,0.7-1v-1c0-0.1,0.1-0.1,0.1-0.1c0.4,0.1,1.4,0.6,1.4,3.7c0,0,2.4,0,2.4,0c0,0,0.6-5.2-4-5.5v-4.3c4.5-0.9,3.9-6.1,3.9-6.1C67.4,51.1,67.2,50.3,67.2,50.3z M64.5,51.2h0.3c0,3.1-1.1,3.6-1.4,3.7c-0.1,0-0.1,0-0.1-0.1v-1c0-0.5-0.4-0.8-0.7-1c-0.4-0.2-1.1-0.2-1.4,0c-0.4,0.2-0.7,0.5-0.7,1v1c0,0.1-0.1,0.1-0.1,0.1c-0.4-0.1-1.4-0.6-1.4-3.7v-0.8c0-3.1,1.1-3.6,1.4-3.7c0.1,0,0.1,0,0.1,0.1v1c0,0.5,0.4,0.8,0.7,1c0.4,0.2,1.1,0.2,1.4,0c0.4-0.2,0.7-0.5,0.7-1v-1c0-0.1,0.1-0.1,0.1-0.1c0.4,0.1,1.4,0.6,1.4,3.7V51.2z"/>
  </g>
</svg> 