<svg xmlns="http://www.w3.org/2000/svg" xmlns:xlink="http://www.w3.org/1999/xlink">
<style type="text/css">
	.st0{fill:#141726;}
	.st1{fill:url(#SVGID_1_);}
	.st2{fill:url(#SVGID_2_);}
	.st3{fill:url(#SVGID_3_);}
	.st4{fill:url(#SVGID_4_);}
	.st5{fill:url(#SVGID_5_);}
	.st6{fill:url(#SVGID_6_);}
</style>
<circle class="st0" cx="50" cy="50" r="50"/>
<linearGradient id="SVGID_1_" gradientUnits="userSpaceOnUse" x1="71.86" y1="83.23" x2="31.06" y2="17.79">
	<stop offset="0.16" style="stop-color:#C6F462"/>
	<stop offset="0.89" style="stop-color:#33D9FF"/>
</linearGradient>
<path class="st1" d="M67,71.1c-8.35-13.56-20.8-21.25-36.17-24.45c-5.44-1.12-10.9-1.11-16.17,0.96c-3.61,1.43-4.16,2.93-2.46,6.71
	c11.55-2.74,22.3-0.19,32.36,5.63c10.14,5.86,17.7,14.03,21.14,25.63c4.83-1.48,5.45-2.29,4.29-6.78C69.29,76.18,68.43,73.43,67,71.1z"/>
<linearGradient id="SVGID_2_" gradientUnits="userSpaceOnUse" x1="71.57" y1="83.42" x2="30.77" y2="17.97">
	<stop offset="0.16" style="stop-color:#C6F462"/>
	<stop offset="0.89" style="stop-color:#33D9FF"/>
</linearGradient>
<path class="st2" d="M76.14,60.08c-10.73-15.63-25.91-24.36-44.48-27.29c-4.91-0.78-9.93-0.56-14.53,1.79c-2.2,1.13-4.15,2.56-4.68,5.61
	c14.48-3.99,27.46-0.46,39.69,6.63c12.29,7.13,21.89,16.69,25.63,31.39c2.6-2.3,3.06-5.13,2.39-7.75C79.24,66.85,78.19,63.06,76.14,60.08z"/>
<linearGradient id="SVGID_3_" gradientUnits="userSpaceOnUse" x1="72.13" y1="83.07" x2="31.33" y2="17.63">
	<stop offset="0.16" style="stop-color:#C6F462"/>
	<stop offset="0.89" style="stop-color:#33D9FF"/>
</linearGradient>
<path class="st3" d="M13.13,61.08c0.91,2.03,1.51,4.31,2.88,5.95c0.69,0.84,2.78,0.51,4.23,0.71c0.23,0.03,0.45,0.06,0.68,0.09
	c12.86,1.91,23.01,8.14,30.26,19c0.43,0.64,1.11,1.59,1.68,1.59c2.18-0.01,4.36-0.35,6.56-0.56C56.13,69.69,29.1,54.79,13.13,61.08z"/>
<linearGradient id="SVGID_4_" gradientUnits="userSpaceOnUse" x1="71.13" y1="83.69" x2="30.33" y2="18.24">
	<stop offset="0.16" style="stop-color:#C6F462"/>
	<stop offset="0.89" style="stop-color:#33D9FF"/>
</linearGradient>
<path class="st4" d="M82.08,45.84c-7.09-9.91-16.86-16.51-27.96-21.21c-7.69-3.26-15.65-5.23-24.1-4.21c-2.93,0.35-5.66,1.19-7.93,3.09
	c28.86,0.73,50.58,13.23,65.5,37.91c0.03-1.64,0.28-3.46-0.33-4.94C85.76,52.81,84.34,49.0,82.08,45.84z"/>
<linearGradient id="SVGID_5_" gradientUnits="userSpaceOnUse" x1="71.46" y1="83.49" x2="30.66" y2="18.04">
	<stop offset="0.16" style="stop-color:#C6F462"/>
	<stop offset="0.89" style="stop-color:#33D9FF"/>
</linearGradient>
<path class="st5" d="M88.73,40.66c-5.88-22.36-29.75-33.13-47.4-27.68C60.34,16.74,75.94,25.8,88.73,40.66z"/>
<linearGradient id="SVGID_6_" gradientUnits="userSpaceOnUse" x1="72.38" y1="82.91" x2="31.58" y2="17.47">
	<stop offset="0.16" style="stop-color:#C6F462"/>
	<stop offset="0.89" style="stop-color:#33D9FF"/>
</linearGradient>
<path class="st6" d="M19.43,72.99c6.83,8.66,15.5,13.71,26.63,15.35C41.8,80.4,26.83,71.81,19.43,72.99z"/>
</svg> 