<svg xmlns="http://www.w3.org/2000/svg" version="1.1" viewBox="0 0 800 800">
  <circle cx="400" cy="400" r="400" style="fill: #f2bb15" />
  <path
    d="M250.3,191.2v72.9c0,3.9,17.1,23.2,22.5,24.8,22.2,6.4,37-7.1,62.2,12.7,37.9,29.7,1.5,89.1,63,91,65.8,2,29-61.2,67-91,25.2-19.7,40-6.2,62.2-12.7,5.4-1.6,22.5-20.8,22.5-24.8v-72.9h114.3v65c0,5.5-13.9,30.5-19.9,35.3-25.4,20.7-92.2,1.6-86.3,62.7,4.8,50.5,63.5,33.2,87.5,53.6,25.1,21.4,24.1,66.7-2.9,86.8s-48.3,5.8-69.2,25.4c-2.7,2.5-11.6,14-11.6,15.9v72.9h-114.3v-69c0-5.3,14.5-27,19.9-31.3,22.3-17.8,53-2,74.7-27.7,42.4-50-37.1-106.4-75.1-63.3-15.6,17.7-8.2,28.2-12.5,46.6-10,43-69.9,55.2-97.6,20.6-19.7-24.6-3.2-60.7-34-76.3-45.5-23.1-98.7,26.4-66.2,70.2,20.9,28.1,50.9,12.5,74,28.4,6.7,4.6,22.3,26.2,22.3,32.9v69h-114.3v-72.9c0-2-9-13.5-11.6-15.9-20.9-19.6-46.5-8.6-69.2-25.4-26.9-20-28.2-64.4-3.4-86.2,24.2-21.2,83.1-3.6,87.9-54.2,5.8-61.1-60.9-42.1-86.3-62.7-5.9-4.8-19.9-29.7-19.9-35.3v-65h114.3Z"
  />
</svg>
