<svg xmlns="http://www.w3.org/2000/svg" viewBox="0 0 44.8 44.8">
  <circle cx="22.4094814" cy="22.4" r="22.4" style="fill: #fff" />
  <path
    d="M22.3999996,5.4234716c-9.3724588,0-16.9765293,7.6040702-16.9765293,16.9765299s7.6040704,16.9765293,16.9765293,16.9765293h10.168235c-3.0062599,1.7683884-6.454617,2.8294221-10.1682333,2.8294221-10.9640094-.0000034-19.8059514-8.9303634-19.8059514-19.8059531C2.5940499,11.4359921,11.4359919,2.5940501,22.3999996,2.5940501s19.8059497,8.841942,19.8059497,19.8059497c0,.972614-.0884181,1.9452279-.1768395,2.8294221h-2.8294221c.1768395-.8841942.2652576-1.8568082.2652576-2.8294221-.0884181-9.372458-7.6924868-16.9765282-17.0649457-16.9765282Z"
    style="fill: #06070a; fill-rule: evenodd"
  />
  <path
    d="M38.6691725,33.7176866c-.7073547.9726123-1.5915489,1.9452279-2.4757431,2.8294221h-13.7934298c-7.7809091,0-14.1471072-6.3661989-14.1471072-14.1471072s6.3661981-14.1471072,14.1471072-14.1471072,14.1471088,6.3661981,14.1471088,14.1471072c0,.972614-.0884181,1.9452279-.2652576,2.8294221h-2.9178402c.2652576-.8841942.353679-1.8568082.353679-2.8294221,0-6.2777791-5.0399076-11.3176859-11.3176851-11.3176859s-11.3176859,5.0399068-11.3176859,11.3176859,5.0399068,11.3176851,11.3176859,11.3176851h16.2691678Z"
    style="fill: #06070a; fill-rule: evenodd"
  />
  <path
    d="M40.2607214,30.8882645h0c.4420971-.8841942.7957761-1.8568082,1.0610337-2.8294221h-19.0101719c-3.0946797,0-5.6588425-2.5641628-5.6588425-5.6588425s2.5641628-5.6588425,5.6588425-5.6588425,5.6588425,2.5641628,5.6588425,5.6588425c0,1.0610337-.2652576,2.033646-.7957744,2.8294221h3.0946797c.3536773-.8841942.4420971-1.8568082.4420971-2.8294221,0-4.6862303-3.8020344-8.4882646-8.4882646-8.4882646s-8.4882646,3.8020344-8.4882646,8.4882646,3.8020344,8.4882646,8.4882646,8.4882646h18.0375579Z"
    style="fill: #06070a; fill-rule: evenodd"
  />
  <metadata>
    <sfw xmlns="http://ns.adobe.com/SaveForWeb/1.0/">
      <slices />
      <sliceSourceBounds
        x="0.01"
        y="-0.1"
        width="44.8"
        height="44.8"
        bottomLeftOrigin="true"
      />
    </sfw>
  </metadata>
</svg>
