<svg xmlns="http://www.w3.org/2000/svg" version="1.1" viewBox="0 0 500 500">
  <linearGradient
    id="SVGID_1_"
    gradientUnits="userSpaceOnUse"
    x1="484.87"
    y1="339.5999"
    x2="-54.6579"
    y2="138.3399"
    gradientTransform="matrix(1 0 0 -1 0 502)"
  >
    <stop offset="0.3724" style="stop-color: #ff97d6" />
    <stop offset="0.8021" style="stop-color: #f8b994" />
  </linearGradient>
  <path
    fill="url(#SVGID_1_)"
    d="M250,0c138.2,0,250,112.1,250,250c0,138.2-112.1,250-250,250C111.8,500,0,387.9,0,250S112.1,0,250,0z"
  />
  <path
    fill="#ffffff"
    d="M284.4,192.3L250.2,158l-34.1,34.1l34.1,34.4L284.4,192.3z M374.1,190.9l-93.2,91.3  c-16.9,16.7-44.5,16.7-61.4,0l-93.2-91.3l-33,33.9l93.2,91.3c17.7,17.2,40.7,25.9,63.8,25.9c23.1,0,46.1-8.7,63.8-25.9l93.2-91.3  L374.1,190.9z"
  />
</svg>
