<svg xmlns="http://www.w3.org/2000/svg" version="1.1" viewBox="0 0 512 512">
  <circle cx="256" cy="256" r="256" fill="#3d8130" />
  <path
    d="M180,263.5l.7-8.8s3.1-3.1,3.8-3.1,11.2,2.1,11.2,2.1l39,9.5,36.4,7.6,39.4,4.5,23,1,32.1-.2,13.1-4.3,11.9-13.1,5-15.2,1.7-2.4,5.9,9-.5,10.5-8.1,7.1-4.3,6.9,3.3,7.1-1.9,9.5-5.7,6.2-7.6,7.1-9.3,4.3-11.6.7h-13.5l-17.6,1.4-12.1-.5-21.6-.5-11.4-.5-22.1-3.8-20.4-7.6-24-11.9-21.4-10.2-13.3-12.6Z"
    fill="#983b1f"
  />
  <ellipse
    cx="260.6"
    cy="194.1"
    rx="7.6"
    ry="6.4"
    transform="translate(-44.5 82.4) rotate(-16.6)"
    fill="#FFF"
  />
  <circle cx="242.8" cy="196.4" r="3.1" fill="#FFF" />
  <circle cx="240.8" cy="186.6" r="3.1" fill="#FFF" />
  <circle cx="344.2" cy="200.6" r="2.9" fill="#FFF" />
  <circle cx="342.8" cy="189.4" r="3.1" fill="#FFF" />
  <circle cx="360.5" cy="195.3" r="5.7" fill="#FFF" />
  <path
    d="M179,235.6c-.9-2.2.8-2.8,2.1-3.5.9-.5,3.2-1.2,4.5-1.3,1.7-.2,3.4-.6,5.1-.7,2.5-.1,5.2-.8,5,1.7,0,1.2,0,1.3-2.8,1.7-3.2.4-6.6.2-9.8,1.8-1.4.7-2.9,1.8-4.2.3h0ZM366.1,353.1c0-1.8-1.3-2.1-3.2-2.5-.9,1.3-3.6,5.4-4.6,6.5l-5.6,5.6c-1.2,1.5-2.3,2.4-3.7,3.9-.4.4-.6.6-.9.9-3.1,2.5-5.9,5.9-8.7,8.1-.7.6-1.3,1.1-2.1,1.7l-3.1,2.5c-.6.4-.7.4-1,1,.2.4.9,1.2,1.2,1.5l2.8,2.8c.9.9,1.3.6,2,.6.8-3.4.5-2.4,2.1-5.3,2-3.3,3.6-5.8,6.3-8.6,4.2-4.2,3.7-2.7,6.7-4.3l2.4-1.4c1.4-.8,2.3-2.6,3.4-4,1.6-1.9,6.1-6.4,6.1-9.1h0ZM331.8,364.6c2.4-.6,5.2-2.4,7.1-3.8,1.4-1,2.8-2,4.2-3.1l4.1-3.1c.6-.6,1.3-1.1,2-1.6,2.1-1.6,4.1-3.5,7.3-3.5,3.7,0,2.3.5.6,3.1-1.2,1.8-1.9,2.8-3.2,4-.6.6-1.2,1.3-1.8,1.8l-1.9,1.7c-.7.7-1.2,1-1.8,1.8-2.2,2.4-.5.9-3.7,3.5-1.5,1.2-3.5,3.7-4.5,4.6-.3.2-.6.4-1,.8-1.8,1.7-3.8,3.5-5.9,5-1.5,1-1.2,1.3-2,1.6-1.3-1.7-.6-6.9-1.3-9.4-1.2-3.7-2-2.4,1.8-3.4h0ZM367.2,360c-.5-.6-.2-.4.1-.8.7-.7,2-3.6,2.1-4.6.2-1.5.5-.6,1.4-1.3.5-.4.7-1.4.6-2-.2-.7-4-3-4.9-3.3-3.2-1.3-10.6-2.8-13.9-1.3-.9.4-1.2.3-2,.8l-3.2,2.2c-1.4,1-3.6,3.3-6,4.8l-1.6,1.2c-2.2,1.3-4.2,3.2-6.5,4.4-.7.3-1.2.5-1.9.8-3,1.5-9,.8-11.9,0-.9-.2-1.1-.6-2-.8-1.5-.4-2.1-1.3-2.7-2.8-.2-.6-.6-1.2-.7-1.9-.1-.8-.1-1.8,0-2.6.2-.9.6-1.3.8-2,.7-2.1.9-1.6,2.6-2.8l3.5-2c1.2-.4,2,.5,2.9.9l1.7,1c.9.5,1.6,1,2.2,1.8.5.6.7.8,1.2,1.6,1.3,2.3-3.7,4.9-4.3,5.9-1,1.5.5,3.2,2.2,2.6.2-.1,1.3-.9,1.6-1.2l1.5-1.3c1.4-1.5,2.8-3.2,2.8-5.4s-.7-2.3-1.2-3.1l-1.8-2.2c-.5-.6-.2-.2-.8-.6l-4-2.6c.5-.7.9-.7,1.6-1.2.7-.6,1.3-1.6,2.1-2.1,1.5-1,.9-.8,2.1-2.1.6-.7.8-.8,1.5-1.3,1-.7,2.1-1.7,2.8-2.6.9-1.2,3.4-2.8,4.6-3.7,1.8-1.3,3.1-2,5-3.5,1-.9,2.5-1.2,3.7-1.7,4.8-1.8,4.5-3.2,10.9-3.2,1.7,0,2.9.4,4.2,1.6.6.6,1,.6,1.5,1.2,1.7,1.7,4.1,3.8,6.1,5.1,1.3.9,1.7,2,2.3,3.3.4.8,1.4,1.8,2.3,3.1l1.3,1.5c.7.8,1.8,1.1,2.7,1.7,1.3.8,1.9.8,2.8,1.4,2.3,1.6,4.8,2.4,7,4l8.1,5.8c1.1.7,2.3,1.6,3.1,2.5,1.3,1.5,2.9,2.6,4.3,4,1.4,1.4,2.4,3.2,3.7,4.6,1.2,1.3,2.8,4.5,4.3,5.5,1,.7.4.7,1.2,1.5l2.1,2.1c1.3,1.6,1.1,1.5,1.8,2.5.4.6.2.1.6.6,1.1,1.3,3.4,5.3,3.6,7.5,1.2.8.3-.4,1.1,1.3,2,4.2,2.1,3,3,4.5s1.7,3.2,2.6,4.8l4.6,10.2c1,2.1.7,1.7,1,3.9.4,2.3,1.8,2.9,1,6.1-.2.9-.4.6-1,1.5-1.8,2.5-1.8,1.5-3.4,2.8-.7.6-.3.7-1.2,1.2l-2.4,1.2c-1.3.6-2,1.6-2.9,2l-4.2,2c-1.1.6-.7.9-2.4,1.2-1.7.2-2.1,1-3.8,1.1v.2c0,0,0,0-.1.1v.4c-1.3-.1-.7-.2-2.1.1-.7.2-1.4.2-2.2.4-2.6.7-5.1,1.3-7.7,2.3-.7.2-3.4.6-4.2.7-2.1.2-2.5-.2-4.6.4-1,.3-8.8.2-9.7,0-1-.4-.7-.4-2.1-.4l-10.2-.2c-2.1,0-6.7.4-8.3-.3-.7-.3-6.9-.7-8-1-.8-.2-2-.1-2.9-.2-1.6,0-1-.4-2.3-.5-2.1-.2-3.2-.4-5.1-.9s-4.8-1.6-6.5-2.6l-5.4-3.4c-.7-.7-1.8-1.2-2.8-1.8-.5-.4-.2-.4-.7-.7-.4-.3-.6-.3-1-.7l-9.8-6.5c-.6-.4-1.3-1-1.8-1.3l-1.9-1c-.8-.5-.6-.5-1-1.3-.4-.7-.6-1.7-1-2.6-2.8-5.8-1.8-11-1.8-17.1s-.3-2.6-.5-4.7c-.1-1.4-1-2.4-1.5-3.6-.5-.9-2.1-3-2.9-4-.5-.7-.8-1.5-1.2-2.3-.6-1.3-1.9-2.9-2.8-3.9-1.7-1.8-3.4-3.1-5.2-5.1-1.7-1.9-3.1-4.1-3.9-6.4-.6-1.8-.6-4,.4-5.4.2-.2,1.5-1.5,1.8-1.7,2.8-1.8,3.5-3.1,7.2-3.1,1.7,0,1.5,0,2.8.6,3.7,1.5,1.5.1,3.9,2.9.6.7.7.5,1.2,1.3,1.2,2.3-.3,6.5,4.4,9.9,3.2,2.3,4.4,1.9,6.3,2.4.5.1.4.3,1.2.4,1,.1,2,0,3.1.2.2.4.4,1.4.6,2,.2.8.5.9.7,1.7.7,2.6.4,6.1,1,8.6.7,3.2,3.1,6.8,5.5,8.9.6.5.9.7,1.3,1.2,1.1,1.3,2.6,2.1,3.8,3.2l4.8,3.8c1.5,1.2,2.8,2.8,4.2,4.2s3.3,2.3,4.3,2.9c2.1,1.4,5.1,1.8,7.5,2.1,2.3.4,3.3-.3,4.3-.4,1.3,2.3.3,3.5,2.6,5.9.7.7,1,1.3,2.5,1.9.7.2.9.5,1.5.6,3.1.6,6.4.9,9.4,1.1,2.1.2,3.8-.1,5.7-.8.5-.2.9-.4,1.2-.6.3.4.7,2.2,1,3,.3,1,1.8,2.7,2.8,3.1,3.7,1.5.2.5,4.7,1.1,2.3.3,4.6-.1,6.6-.9,4.3-1.6,4.5-4.2,7.4-6.2.2-.2.3-.2.6-.4l2.1-2.8c.4-.5.5-.5.9-1.1.4-.5.5-.6.8-1l1.3-1.7c.2-.3.2-.2.4-.5,1.6-1.7,2.9-3.4,4.6-5,.5-.5.4-.6,1-.8,0-1.3,0-2.1-1-2.4-2.1-.8-4.2,2.6-5.3,4.1-.9,1.2-2.1,2-3.1,3.3-.4.7-.3.2-.8.9l-2.6,3.6c-.2.3-.5.5-.8.8-.5.6-.9,1.1-1.5,1.7s-1.3,1-1.7,1.5c-.5.6-.8,1.2-1.4,1.7-1.2.8-2.6,1.5-4.4,1.9-1.3.2-4.5.1-5.6-.4-2.7-1.3-1.5-1.5-2.4-3.9-1.2-2.7-1-2.4.3-4.6.6-.9.8-.9,1.7-1.6.4-.4.4-.4.9-.8,1.3-1,6.6-6.7,6.9-7.1,1.4-2.1,1.6-1.8,2.9-3.2.6-.6,1-1.1,1.5-1.7.6-.6.9-1,1.5-1.5.6-.5.9-1.3.6-2.4-.3-.9-1-1.1-2.1-.9l-4.9,5c-.9.7-1.3,1.3-2,2.2-1,1.3-2.8,3-4,4.3l-2.7,2.9c-1,1.2-1.5.4-4.2,4.3-.4.6-.5,1.2-1,1.8-1.7,2.2-5.6,1.3-8.1,1.2-1,0-2,0-2.9,0-2.3-.2-.6-.6-5-.9l-1.3-2c-.4-.7-.5-1.5-.7-2.3-.4-1.5-.1-2.6.6-3.8.9-1.7,1.5-3.7,2.3-5.3l3.9-5.5c1-1,1.7-2.6,2.4-3.7.7-1.2,2.9-2.8,4.1-3.7,1.3-1,3.4-2.1,4.4-3.2,1.7-2-.1-4-2-2.8-.2.2-.5.4-.9.7l-4.5,3.1c-1.3.9-2.8,2.5-4,3.9-1.2,1.3-1.4,2.7-3.1,4.6-.5.6-.9,1.3-1.2,1.8-.9,1.3-1.7,2-2.5,3.7-.2.6-.4.6-.6,1-.2.4-.1.7-.3,1.2-.2.6-.7,1.2-1,2.1-.3.7-.7,1.5-1,2.1-1.5,0-2.5.6-3.7.5-1.2,0-2.4-.4-3.7-.6-2.4-.4-4.2-2-5.8-2.9-1.5-.9-2.2-2-3.4-3.1-.4-.4-.6-.8-1-1.2-1.3-1.6-2.5-3.1-3.2-5.5-.4-1.6,0-2.4.7-3.5.6-.8,1-1.8,1.7-2.7.7-.9,1.2-1.5,1.8-2.6,1.3-2.3,2.8-3.4,4.6-5.2.3-.3.1-.2.6-.5,1-.6,2-.8,3.1-1.3.4-.2,1-.5,1.5-.7.7-.3,1.9-1,2.8-1.5,1.8-1,3.7-2.4,5.5-3.2,3.9-1.8,2.6-1.7,4-2.5,1.3-.7,2.6-1.7,3.7-2.9,1.5-1.5,3.2-2.6,4.8-3.9,1.2-1,4.1-2.8,4.9-3.6s1.2-2.2,0-2.9c-1.4-.9-2.4.3-3.1.9-.8.7-1.7,1.1-2.6,1.8-.6.5-.2.4-1.2,1-.5.3-.7.5-1.2,1-.6.6-.4.5-1.2.9-1.3.7-2.3,2.1-3.5,3.1l-1.2,1c-.7.7-.9.7-1.2.6h0ZM255.4,284.3c-1.3,0-8.3-1-9.2-1.4-1.7-.7-2.6-.5-4.5-.8-1.2-.2-2.8-.8-4.2-1-1.7-.2-6.7-2-8-2.8-1.3-.7-6.1-2-8-2.6-1.1-.4-2.8-1.2-3.8-1.7l-12.3-3.5c-2.5-.5-12.1-6.6-12.1-9,0-.9.6-1.3,1.5-1.3,2,0,7.3,5.6,11.6,6.9,2.7.9,5.6,1.7,8.3,2.2,2.4.4,3.7,1.2,5.9,2l5.8,2.1c1.5.5,2.6.7,4,1.2.7.2,1,.6,1.8.9.7.2,1.2.6,1.8.7.7.2,1.4.4,2.1.6.6.2,1.1.5,1.9.7,1.5.3,3.1.6,4.5.9,1.3.2,3.2.4,4.5.7.8.2,1.3.4,2.1.6l7,.8c3.1,0,6-.4,9.1-.1,2.6.3,5.4.4,8.1.6l7.4,1.3c1.4.4,1.9.6,3.4.9,2.3.4,4.6,1.3,7,1.7,1.2.2,2.7.3,3.8.6,2,.6,5.6.8,7.8.9l7.8.9c3.9.4,8.3,1.1,12.1.6,2-.3,4.5-.3,6.5-.4.7,0,1.9.2,3.1.2h4.2c3.1,0,9.2,1.3,14.1.6,6.2-1,15.7-.5,20.7-1.3.5,0,2.3-.6,2.8-.9.8-.4,1.8-.6,2.4-1.2s1.3-1.1,1.9-1.7c.7-.6,1.1-1.2,1.8-1.8l3-2.4c.4-.2.7-.4,1.1-.7.6-.4,1.7-1.2,2.1-1.7.7-.7,1.1-1.2,1.8-1.8,2.3-2,4.1-5.8,6.5-8l1.8-1.8c.6-.5.4-.1,1-.9.3-.4.5-.6.9-1,2.3-2.4,4.9-6.7,4.2-10.2-.5-2.6-1.2-2.3-2.2-5.1-.2-.6-.9-1.8-1.3-2.3-.4-.7-.9-1.8-1.7-2,0,0,0,.1,0,.1l-.4,1.8c-.3,1.9-.9,3.7-1.4,5.5-.7,2.2-3.3,7.3-4.5,9.4-1.1,1.8-4.5,6.1-5.8,7.8-.7.9-.6.6-1.2,1.1-1.8,1.8-4.2,3.8-6.7,5l-3.2,1.3-11.3,2.4c-1.6.2-3.2.1-4.9.1-4.2,0-9.7.7-12.7.7h-4.3c-2.8,0-5.3-.6-8.1-.7-1.5,0-2.7,0-4.2-.2-4.5-.5-8.6-.8-13-.9-1.6,0-2.8-.4-4.3-.5-1.5-.1-2.9-.2-4.5-.2-3.6,0-9,.4-12.1-.5-2.9-.8-6.2-.6-9.2-1.2l-9.1-1.3c-3.1-.2-6.2-.8-9.2-1.2-.8-.1-1.6-.2-2.3-.4-1.1-.2-1.2-.2-2-.6-1.4-.5-7.5-1.3-8.8-1.7l-8.4-1.9c-1.6-.2-2.6-.8-4-1-1.7-.2-2.8-.7-4.3-.9-.8-.1-1.5-.1-2.3-.2-.9-.2-1.1-.4-2-.6-1.5-.2-3.3-.2-4.6-.6-1.5-.4-2.8-.7-4.4-.9-2-.2-6.1-1.5-8.3-2.1s-2.7-1-3.8-1.5c-1-.4-2.8-.9-3.9-1.2-.7-.2-1.5-.4-2.2-.5l-7.8-2.5c-.7-.3-1.1-.5-2-.6-2.9-.3-10.9-3.5-12.7-1-.9,1.2-1.5,2-1.8,3.5-.7,4.5-.6,3.2.7,6.3.7,1.8,2.2,2.9,3.6,4,1.8,1.4,4.5,2.6,6.1,4.5.9,1,2.1,1.4,3.2,2,.4.2.4.2.7.5l2.5,1.3c1.2.5,2.3,1.2,3.4,1.8,3.2,1.7,1.5.7,3.8,1.5,1.7.5,7.5,4.7,9.7,5.9.6.3,1.2.5,1.8.9.6.3,1.2.5,1.8.8l6.8,3.5c1,.6,2.7,1,3.8,1.5l5.2,2.6c2,1.3,6.8,3.1,8.7,4.2,1.3.7,2.1,1.2,3.5,1.8,1.2.6,2.5,1,3.7,1.5,2.7,1.2,5.6,1.2,8.4,1.9,1.3.3,3.1.5,4.5.6,2,.1,2.7.6,4.5.8,1.5.2,3.2.1,4.8.2,1.8.1,2.9.6,4.4.9,3,.4,2.1.7,4.1,1.2,1.7.4,2.5.8,4.3.8,6.7.1,13.6,0,20.3.4,1.7.1,2.9.5,4.7.4l5.3.2c8.6.1,17.3-.7,25.9-1.1,2.1,0,4-.6,6.2-.6l10.3.5c6.9.6,7,.7,12.6-1,1-.3,2.6-.7,3.5-1.3,1-.6,2-1.1,3-1.7s1.7-1.4,2.7-2c.5-.3,1.1-.7,1.5-1,1.3-1,3.2-3.9,4.1-5.3.6-.9.2-.7,1-1.4.6-.5.9-.6,1.3-1.1l1.5-2.2c.4-.5.2-.2.7-.6l.6-.7c.6-.6,1.5-3.2,1.7-4.2.6-4.8-.4-4-1.2-5.9-.9-2.2-1-1.4-2.4-.2-.4.4-.9.7-1.3,1-.7.6-.6.5-1.5,1-1,.4-3.2,2.6-3.9,3.4l-2.5,2.4c-1.3,1.1-3.2,1.9-4.8,2.6-.8.3-1,.2-1.9.5-2.4.6-6.4.7-9.2.7-3.1,0-5.7.6-8.7.6-4.5.1-9.2.6-13.8.1-10.6-1-18.9.7-29.9-.9-1.3-.2-2.8-.2-4.2-.3-1.5-.1-2.3-.4-3.9-.4-6.4-.3-7-.9-11.9-1.5l-10.8-2.6c-1.2-.4-2.4-.4-3.9-.7-1.3-.2-2.1-.6-3.7-.7-5.9-.5-11.3-.2-17.2-.2h0ZM345,198.9c-.6-.2-1.6-.2-2.3-.1s-.9.4-1.2,1c-1.3,3,2.7,4.6,4,2.4.5-1,.4-2.8-.6-3.3h0ZM243.8,194c-2.6-1-6,2.8-2.6,4.8,3.2,1.9,5.5-3.6,2.6-4.8h0ZM359.6,191.1c-2-.7-4.8,3.1-3.1,7.1,1,2.4,3,2.1,4.6,2.1s2.3-.7,3.1-1.6c.9-1,.7-2.3.7-3.9s0-1.5-.4-2c-1.7-2.1-3.5-1.2-4.9-1.8h0ZM262.2,188.5c-1.2-.5-3.5.5-4.5.9-6.2,2.9-3.2,9.8.4,9.8s3.2.2,5.2-.7c3-1.4,4.1-6.2,2.7-8s-2.4-1.5-3.8-2h0ZM343.4,186.9c-1.3-.4-2.4,1-2.7,2.1-.5,1.7.5,3.1,1.7,3.3,2.9.6,5-4.3,1-5.4h0ZM327,206.5c1,.2,3.1,1.1,3.9,1,0-1.2-.9-3.5-.9-5.4,0-2.4.4-3.5.7-5.6.4-3.3.9-3.2,1.5-4.8.2-.9.3-1.5.7-2.4.3-.6.9-1.3.8-1.8-.6.1-4.4,4.3-5,4.9-1.2,1.2-5.6,7.2-5.9,9.2-.6,4.1-1.3,3.6,4.2,5h0ZM241.6,183.9c-.9-.4-1.6-.1-2.3.4-.7.6-.9.7-1.2,1.7-.6,1.5.8,3.2,1.9,3.3,2.3.3,3.7-1.2,3.9-2,.4-1.9-.8-2.8-2.2-3.4h0ZM367.7,208.6c1,.1,6.9-.9,7.9-1.2,2.1-.7,4.3-1.8,6-3,3.2-2.3,4.3-4.1,6.7-6.9.6-.7,1.8-1.4,2.1-2.2,1-2.7-2.6-3.2-4.8-4-1.6-.6-7.5-3.4-9-4.4-.9-.6-1.7-1.2-2.8-1.7s-5.6-2.6-6.7-1.8c.2.6,0,.2.5.7l2.9,4.7c1.8,4.5,2.5,10.1.3,14.6-.5,1-.9,2-1.4,2.9-.6.8-1.6,1.7-1.7,2.4h0ZM230.6,183.9c1.6-2.1,1.9-1.5,2.1-2.5-.3-.2,0-.1-.5-.2h-.2l-12.5,1.2c-1.8,0-11.4,1.3-12.3,2,.1.7.2.4,1,.7l3.7,1.5c1.8.8,3.4,1,5.1,1.8,1.8.7,3.2,1.3,4.8,2.1,2.6,1.2,2.9,2.6,3.7,2.8h.3c.3-.5.3-1.3.5-1.9.8-2.9,2.5-5.1,4.2-7.5h0ZM275.2,210.8c5,.4,12.8.3,17.2-1.3,1.6-.6,3.1-1.5,4.5-1.8,1.7-.5,2.9-1.3,4.8-1.5.7,0,4,.9,2.3-3.4l-5.4-13.5c-.8-2.2-3.7-5.4-5.6-6.9-2.4-2-1.9-1.8-4.3-1.9-1.1,0-1.8-.2-3.1-.2s-1.9.2-2.9.2c-4.2,0-7.8.6-11.9.6.7,2.3,4.9,1.2,4.1,15.1-.2,4.5-2,9.4-4.8,13-.5.7-.2,0-.4.9l5.4.9h0ZM342.8,177.9c0-.7.4-.5,1-.9.6-.3.7-.6,1.3-.9s.9-.6,1.3-.9c2.7-1.7,3.8-2.9,7.5-3.2,5.8-.5,10.1-1.2,15.8-.4,2.9.4,7.8.6,10.7,2,3.1,1.5,2.3,1.5,3.4,3,.4.6.6.7.9,1.3l4.5,6.4c.4.5.6.6,1,1.2,1.4,1.8,1.5,1,2,2.2.4,1.1.8,3.5-1.1,1.8-.9-.9-3.9-1.6-5.9-2.6-2-1-3.9-1.7-5.8-2.8-1-.6-2.3-1.5-3.9-2.4-2.6-1.4-5.4-2.1-8.4-2.3-1.3,0-2.4-.4-3.8-.4s-2.8-.1-4-.2c-2-.2-16-.6-16.4-.9h0ZM282.4,176.5c-.7.6-1.1.1-2.1.2-.8,0-1.7.3-2.6.3l-11.1.7-28.4-.5c-3.3,0-6.4.7-9.4.7-3,0-6.7.5-9.4.9-4,.6-9.6.9-13.2,2.2-.7.2-1.2.4-1.8.7s-1,.9-2,.8l-3.6-1.5c-1.3-.7-.7-1.1.8-2.9.9-1.1.9-1.6,2.8-3.5l2-2c.8-.9,3.4-2.4,4.5-3.1,1-.6,8.1-3,9.6-3.4,3.7-1.2,8.7-2,12.8-2.4.8,0,1.7,0,2.4-.2l9.2-1q5.9-.2,12.2.4c3.5.3,8.2,2.6,11.3,4.2l7.7,5.1c.8.5.7.7,1.7,1.1l1.7.9c.5.2,1.2.5,1.8.8.7.2,3.1,1.1,3.4,1.6h0ZM311.6,348.4c1.3,0,.9-.4,1.6-1.3,1-1.3,4.2-2.8,5.8-3.7,1.2-.7,2.7-1.8,3.7-2.6.6-.5,1.1-.9,1.7-1.3l3.3-3.1c1.5-1.8,3.2-2.8,4.8-4.6,1.1-1.2,2.2-1.8,3.4-2.9,1.5-1.4,3.9-2.6,5.6-3.8.8-.6,1-.9,1.7-1.4,1.1-.9,2.9-1.3,4.4-2,1.6-.7,2.6-1.5,4.2-2.1,3.2-1.3,7.7-1.6,11-.7,1.1.3,3,1.8,3.9,2.4l5.1,4.3c2.3,2.2,2,1.3,3.9-.7l1-1,.9-1.2c1.1-1.3,2.9-3.2,3.6-4.9.7-1.8,2-4,2.3-6.1.3-2,.4-6.1-.3-7.7-.9,0-.9.2-1.4.7-.5.4-.9.6-1.3,1-.9.7-1.8,1.3-2.7,1.8-.6.3-.7.5-1.3.9-1.5.8-3.2,1.5-5,2-4.8,1.1-1.2,1.1-7.8,1.3-5.4.1-12.2-1-17.4-.6-2.8.2-5.6.6-8.5.6-5.9.1-11.4.9-17.4.9s-6.1.1-9,0c-1.6-.1-2.7,0-4.2-.3-1-.2-3.1-.3-4.2-.3-2.9,0-5.8-.3-8.9-.3s-10,.5-13.2-.6l-3.4-1.2c-3.9-1.4-9.4-.9-12.1-1.7l-11.9-1.9c-4.3-.7-7.7-2.6-11.5-4.3-.6-.2-.9-.6-1.5-.9-2.2-1-4-1.6-6.2-2.8-3.3-1.8-5.8-3.1-9.4-4.4-.6-.2-.9-.4-1.5-.7-1.5-.8-2.4-.9-4.6-2.2-1.2-.7-1.7-.9-3.1-1.5-2.5-1.1-3.7-2-5.8-3.3-.9-.6-1.9-1.2-2.8-1.7-5-3-3.5-1.5-6.3-2.9l-3-1.5c-.7-.3-.7-.6-1.3-.8-1.6-.7-6.1-3.1-7.2-4.2-2.1-2.2-7.5-4.8-9.5-7.6-.2-.2-.2-.4-.5-.7-1.4-1.8-2.5-4.5-2.1-6.9.1-.7.4-3.5.6-4.1.6-1.7,2.3-4.6,3.9-5.2,1.8-.7,1.5-.7,3.7-.7,2.9,0,5.2.6,8,1.2,1.2.2,2.3.7,3.6.9,1.5.2,12,3.5,14,4.1,2.6.7,3.7,1.5,6.9,2.4,2.4.6,4.8,1.3,7.2,1.8l7.8,1.2c1.3.1,2.3.6,3.8.8,1.5.2,2.4.4,3.8.7,1.2.2,2.6.4,3.8.7,4.8,1.4,13.6,3.1,18.7,4.1,1.2.2,2.4.6,3.7.8,1.4.2,2.8.2,4,.5s2.6.4,4,.6c1.2.2,3.2,0,4.3.4,5,1.3,10.8,1.3,16,2.3,5.5,1,11.9,0,17.6.7l8.2.9c2.1.1,7,0,8.7.4,3.4.9,13.6,1.2,17.2.8l8.6-.5c1.5-.1,3,0,4.5,0,.7,0,1.5,0,2.2-.1l5.6-1.2c3.3-1.2,4.2.2,10.2-3.6,1.3-.9,2.6-2,3.7-3,1.3-1.2,2-2.4,3.1-3.8,1.2-1.7,2.8-3.5,3.8-5.3.4-.6.3-1,.7-1.5.6-.8.4-.4.8-1.5l2.8-6.5c1.5-4.8,1.5-10.8-1.3-15-.4-.7-.3-.9-.7-1.5-.6-.9-1.2-1-2-2.5-.6-1-3.4-3.5-4.4-4.9-.4-.5-.6-.9-1.4-.9-.9,1.3-.5,1.2-2,2.9-.4.4-.4.5-.7.9-.6.7-2.7,2.4-3.7,2.9-2.3,1-8.7,1.6-11.7,1.2-2.3-.4-2.1-3.2,0-3.5.7-.1,2.4,0,3.2,0,2.8,0,7.2-.4,9.1-2.4.4-.5.9-1.2,1.5-1.8.4-.4.6-.3.6-1-.9-.1-2.5.3-3.5.4-1.5,0-2.4-.2-3.8-.2s-2.5,0-3.9-.1c-.9,0-1,.1-1.5-.6-1-1.2-.3-3,2.4-2.8,6.7.3,10.5.9,15.7-4,.7-.7,1.3-1.3,1.9-2.1l1.3-1.8c.7-.8,1.7-2,2.1-2.9.9-2,2.1-3.8,2.3-5.9,0-.9.7-2.7.3-3.4,0,0-.2-.7-.9.3-.3.4-.4.7-.7,1.1-.6.6-1.1,1-1.7,1.8-1.3,1.8-2.8,2.9-4.2,4.3-1.8,1.7-5.6,3.7-7.8,4.4-1.7.5-3.9,1-5.8,1.2-2.1.2-4.1.6-6,.9-1.4.2-12,0-13.6,0-2.1-.2-4-.5-6.3-.5-5.8,0-13.8-.2-18.8-2-2.2-.8-5.9-.8-7.2-3.2-.4-.8-.9-1.6-.9-2.7.3-6.1,2.1-6.9,3.9-10.2.6-1,1.5-1.8,2.1-2.9.4-.7.3-.4.9-1,.2-.3.4-.6.7-.9,2-2.2,4-3.5,5.8-6.4.9-1.5,2-2.8,3.1-3.9s1.1-1.3,1.7-1.8c2.2-1.8,8.1-5.8,10.3-6.9,2.2-1.2,2.8-1.5,5.3-1.8l6.1-.7c4.4-.2,8.8-.3,13.2.2l6.2.9c1.7.5,3.7,1.1,5.1,1.8,1,.6,1.4.8,2,1.5.4.4.5.5.8.9.9,1.2,3.6,4.9,4.2,6.1.5,1,.2.4.8,1,.7.8.6,1.8,1.7,1.9.4-1.2.4-7,0-8.6-1-3.7.4-3.7-3.4-5.8-4.3-2.4-6.9-3.2-12-3.3-1,0-1.7-.3-2.6-.4-5.4-.7-19.3-1-23.4-.2-5,1-8.9,2.5-13.2,5.3l-3.5,2.6c-.4.3-.5.2-.9.6-.8.7-1.7,1.3-2.4,2.3-.7.9-2.1,2.8-3.3,2.9-2,.2-2.4-1.8-1.2-3.2,1-1.1,2-2.1,3-3.2,1-1,2.1-1.7,3.3-2.8,1-1,2.5-1.7,3.7-2.5,1.1-.8,4.8-2.7,5.9-3.1,6.7-2.4,5.6-1.7,12.7-2.7,3-.4,8.6-.1,11.8,0,1,0,1.5.3,2.7.3l6,.4c1.2.2.7.3,2.6.4,4.1,0,6.4.8,10.2,2.2,1.5.6,4.5,2.4,5.5,3.7.6.7.7,1.3,1.8,1.2-.1-2.1-6.1-5.4-7.3-6.3-2.8-2.1-5.6-4-9.1-4.9-1.2-.3-10.6-1.2-12.7-1.2-4.5,0-17.4.7-20.9,2.3-.7.4-.9.4-1.7.7-1.3.5-3.9,2.5-5.3,1.8-.6-.6-1-1.2-.6-2.2.5-1.2.8-.9,1.7-1.5,1.2-.9,3.7-1.8,5.2-2.4,1.8-.7,7.6-1.3,9.5-1.5,5.6-.5,11.4-1,17.2-.5,1.2.1,4.6.7,5.5.6.5-1-.4-1.7-.9-2.5-.9-1.5-2-2.6-3-3.9-.7-.9-1.3-1.8-2.3-2.8-1.5-1.4-2.4-2.6-4.1-3.9-.4-.3-.7-.5-1.2-.8-.6-.4-.4-.4-1.2-.9-1-.6-1.4-1.2-2.3-1.7l-5.9-4.1c-1.2-.7-2.8-1.2-3.9-2.1-2.8-2.1-6.1-3.4-9.2-4.7-.7-.2-.6-.4-1.3-.7-1-.4-2.1-.4-3.2-.7-8.4-2.6-14.8-3.7-24.2-3.7s-5.2.4-7.2.7c-3.4.6-6.9.7-10.1,1.8-2.5.9-3.1,1.3-6.1,2-1.4.3-1.2.6-3.2.8,0,.6.7,1.1,1,1.5,2.6,2.7,4.3,4.3,6.4,7.5.2.4.3.3.6.7.2.3.3.6.5.9l3.2,5.1c.4.8,1.5,2.3,2.1,3.5.7,1.7,1.3,2.1,2.1,3.5,1,1.7,1.8,4,2.6,5.7.5,1,.8,3.5.7,4.6-.2,1.7-1.5,2.8-.1,4,1,.9,1.7,2,2.6,3,2,2.3,3.5,3.3,5.1,6.1.5.9,1.6,5.6,1.7,6.8.2,1.5.3,3.8.4,5.3,0,1.3.2,4.4-.2,5.3-.7,1.5-2.9,1-3.2-.7-.5-2,.1-7.9-.5-10.7-1.5-6.5-2.5-5.9-6.4-10.3l-2.6-3c-1-.9-2.6-1.9-3.5-3.1-2-2.4-5.7-5.9-8.7-6.9-2.4-.8-7.7-1.1-10.2-.9-1.8.1-3.6.2-5.4.2-1.2,0-4.3-.8-4.9.3.3.7,3.1,1.5,3.9,1.8,1.4.5,2.7,1.1,4.2,1.7,2,.7,3.9,1.8,5.4,3.1.8.7.9.6,1.7,1.2,1.9,1.8,4.1,3.7,5.7,5.7.6.7.7.9,1.4,1.5.6.5,1,.9,1.5,1.3,1,.8,2.3,1.7,3.2,2.5,2.1,1.9,3.7,3.7,5.8,5.6l2.8,2.8c1.5,1.3,3,2.6,4.2,4.3.4.6.9,1,1.2,1.7l1,1.9c1,2.7,1.7,2.9,2,6.6.2,1.5.9,4.1-.4,5-.6.2-1.3.3-1.9,0-.6-.4-.3,0-.6-1-.1-.5-.2-.9-.2-1.5,0-1.7-.7-3.4-1-5.1-.1-.8-.6-1.4-1-2.1-.7-1.5-1.5-2.8-2.3-3.9-1-1.4-3.3-3.4-4.7-4.7l-1.6-1.5c-2.3-2-3.7-4.3-6.3-6-4-2.6-6.3-5.8-9.6-9.1-3.4-3.3-7.2-5.5-11.7-6.9l-4.4-1.7c-2.7-.9-9.3-3.7-11.9-3.5-5.1.4-10.3-.4-15.3.2-1.7.2-3.7.6-5.6.6h-6.2c-2.8,0-9.5-.9-11.9-.2-.7.2-1.6.5-2.3.7-.9.2-1.9.3-2.7.6-3.2,1.1-6.2,1.8-8.9,3.4s-2.3,1.9-3.2,2.9c-1.1,1-2.1,1.9-3.2,3.1-1.3,1.5-3.3,3.1-4.5,4.7-1.5,1.9-3.5,3.3-4.3,5.1-.6,1.3-.7,4.1,0,5.1,4.1.3,5-1.9,6.9-4.5,4.2-5.5,1.5-2.3,5.4-6.2,1.2-1.3,3.6-2.6,5.1-3.6l6.3-2.4c1.5-.4,3.2-.9,4.6-1.3,2.4-.9,2.3-.6,4.7-1.1,1.6-.3,3.1-.6,4.9-.9,1.7-.2,3.8-.2,5.3-.6,1.3-.2,3.6-.6,5-.7l5.3-.4c1.8,0,3.6-.2,5.6-.2l5.1.5c2,.2,3.2.3,5.1,1,.7.2,1.6.4,2.3.6.7.2,1.3.6,2,1,1.7.9,3.5,1.3,4.9,2.4.4.3.2.2.9.6,2,1.1,6.8,4.7,7.8,5.2.4.2.6.2,1,.5,1.7,1.1,4,2,5.9,2.8.9.4,1.2.7,1.9,1,2.6,1,5.5,2.4,7.7,4,.7.6,1,.8,1.6,1.3.4.3,1.3,1,1.6,1.3,1,1.1,2,1.8,2.9,2.9l2.2,3.7c.6,1.4,1,2.8,1.7,4.2l1.2,3.1c1.2,2.3,1.7,5,3,7.2.6.9.2,1.8.6,2.5.2.4,2,1,2.5,1.3.9.6,1.4,1.2,2,1.8.4.5.5.4.7,1.2.4,1.5.7,3.7.2,5.1-.9,2.5-4.2,4.3-5.9,5.6-3.1,2.4-5.6,2.5-8.3,5l-2.8,3c-1.3,1.5-2.4,2.4-3.8,3.9-.7.7-1.1,1.4-1.7,2.1-1.6,1.9-2.9,3.1-4.8,4.6-.5.4-.8.5-1.2.8-2,1.8-4.2,3.7-6.7,4.7l-5.4,2.3c-1,.3-1.7.3-3.1.8-1,.4-1.8.7-2.8,1-1.1.4-2,.4-3,.9-3.8,1.6-7,3.1-10.9,4.3-2.3.8-4.5.4-7.1.6-1-1.6-.8-1.7,0-3.4,1.3,0,3.2,0,4.4-.2,1.5-.2,2.9-.7,4.2-1.3.2,0,.7-.2.8-.3l3.2-1.3c.9-.3.9-.4,1.7-.7.5-.2,1.1-.3,1.7-.6.9-.4.5-.5,1.6-.7,1.5-.3,2.3-.5,3.5-1,1.2-.5,2.1-.8,3.4-1.1,1.6-.4,2.1-.8,3.5-1.2,1.9-.6,3.1-1.6,4.5-2.1,1.2-.5,1.7-1.2,2.6-1.9.9-.6,1.6-1.5,2.4-2.1,1.2-.7,2.9-2,3.8-3.1,1-1.2.5-.9,2-2.5l2.2-2.3c.7-.7,2-1.8,2.1-2.4-.2-.1-4.8-.2-6-.5-2.1-.4-4.6-.2-6.8-.2s-4.6-.2-6.7-.2-2.1,0-3.2-.2c-1.2-.1-2-.4-3-.6-2.1-.4-4.2-.4-6.4-.5-2.9-.1-10.3-.7-13-1.2l-6.2-.9c-1.2-.1-2,0-3.1-.4-.9-.2-1.8-.6-2.8-.7-1.8-.4-3.3-1.4-5.2-1.8-2.3-.6-3.9-1.8-5.7-3-1.4-.9-1.8-1.2-3-2.4-2.4-2.5-4.7-4.5-7.3-6.7-1.3-1.1-2.3-2.4-3.8-3.2-.7-.4-1.5-.7-2-1.5s-.1-1.9.8-2.4c1.8-1,4.5,2.1,5.5,2.8,1.4,1.1,7.2,6.2,8,7.2.5.6.6.6,1,1.1,1,1,1.2,1.1,2.4,1.9,5,3.1,5.1,2.3,8.8,4,3.6,1.7,7.3,1.3,11.1,2,5.1,1,10.5,1.4,15.6,1.6,1.4,0,2.6.2,4,.3,3.1.1,4.8,1,7.8,1,2.8,0,5.6.2,8.4,0,2.6-.1,5.6.4,8,.7,1.3.1,2.9.1,4.2,0,1.2-.1,2.4-.7,3.4-1,1-.4,2-.9,3-1.3,3.3-1.6,5.2-2.9,7.8-5.3.6-.6.6-.3.7-1.4.3-2.5-2.1-3.9-2.6-3.8-.6.4-.5.6-1.3,1.1-1.8,1.1-4,.4-5.8,1.2l-8.5,3.2c-1.2.7-4.6.8-6.1,1-3.1.4-5.9.3-8.9,0l-6.4-.6c-.8-.1-.9-.2-2-.4-2.6-.2-5.4-1-8-1.5-1.8-.3-2.3-.3-3.9-.9-.6-.2-1.4-.2-1.9-.5l-1.6-.7c-2.9-1.1-7.8-2.6-11-3.2-1.3-.2-2.4-.8-3.5-1.2-.9-.3-.9-.5-1.6-.8l-8.3-3.5-2.4-2.3c-.9-.8-1.7-1.3-2.6-2.1-1-.9-1.2-1.4-2.4-2.3-4-2.9-8.4-3.6-13.3-5.5-1.8-.7-4.5-2.1-6.4-3.1-1-.5-2.4-.9-3.4-1.3-1.6-.7-1.9-1.2-3-1.8-2.4.7-6.4,2.1-8.1-.4-2.1-2.9-1.8-5-.7-8.3.6-2,2.1-3.2,3.6-4.6.4-.4.8-1,1.2-1.5l5.3-5.6c1.5-1.7,4-3.9,5.6-5.3,2.6-2.2,4.4-2.4,7.5-3.4,4.2-1.5,2.1-.9,6.3-1.8,1-.2,1.2-.4,2-.7,1.2-.4,9.1-.2,10.6,0,3.4.4,7.1,0,10.5-.1,3.4-.1,7.1-.6,10.3-.6,2.6,0,5.3.4,8,0,.7,0,1.6-.3,2.2-.4,2.6-.2,7.6.2,10.3.4,3.4.2,7.3,0,10.7-.2,2.6-.1,1.2-.7,4.8,0,1.3.2,3.6.2,5,.4,3.4.4,5.6,1.6,7.6,3.2l2.9,2.6c.6.7,1.9,2.4,2.8,2.5,1-1.8-.9-5.1-1.7-6.8l-1.6-2.9c-.6-.9-1.4-1.8-1.8-2.9-.5-1.8-1.3-1.9-2.4-4.6l-2.6-3.9c-1.3-2-2.2-3.6-3.9-5.3-.8-.8-1.6-1.6-2.4-2.3-1.8-1.7-5-5.4-7-6.8l-5.6-3.9c-1.8-1.2-3.9-2.4-5.9-3.3-2-.9-1.1-.8-3.7-1-1.3,0-3.1,0-4.3-.2-1.3-.2-.7-.5-1.7-.6-6.6-.8-13.2-.9-19.8-1.3-2.8-.2-6.1.3-8.9.4-1.5,0-2.7.4-4.2.6-3.3.2-6.3,1.2-9.5,2l-3.5,1.2c-1.6.5-3.3,1.5-4.6,2.4-.9.6-1.8,1.3-2.6,1.9-1,.8-1.2,1.4-2.6,2.1-1.4.8-3.2,2.9-5,4.3-.9.7-1.8,1.3-2.7,1.8-1.1.7-3,.8-3.2-.7-.4-2,2.7-3,4.8-4.6,1.5-1.2,2.3-2.6,3.5-3.4.6-.3.9-.6,1.4-1,1.6-1.1,2.8-2.6,5.2-4,1.3-.9,1.2-.9,2.9-1.7,5.9-2.8,12.5-3.4,18.9-4.5l8.8-.5c3.3,0,18.7.9,21.6,1.7,1.8.5,4.5.7,6.4.7,1.8,0,.5-2.3,0-5-.3-1.9-1.8-4.6-2.8-6.4-1-2-2.2-4.3-3.5-6l-2-2.5c-1.5-1.6-5.8-4.9-7.8-6.2-4.2-2.7-8.4-4.2-13.6-5-2.7-.4-5.8-.4-8.4-.9-5.6-.9-12.1-.7-17.7-.3-5.1.4-7.3.3-12.3,1.6-2,.5-1.8.5-3.2,1.5-1.8,1.2-3.7,1.8-5.9,3.3-3.4,2.3-3.4.8-8.1,5.8-.8.9-1.5,1.3-2.3,2.4-.6.9-1.1,2-1.8,2.8-1.2,1.3-5.2,6.9-5.8,8.4-.4,1.2-1,1.9-1.5,3-.6,1.2-1.2,2-1.7,3.1-1.5,3.1-3.9,5.4-6.2,7.8l-4.3,4.9c-1.1,1.2-1.1,1.5-2,2.8-.6.8-1.2,2-1.9,2.6-2.3,1.8-.2-.4-2.3,2.4-.7,1-1.5,1.6-2.3,2.4l-1.2,1.2c-.4.4-.9.7-1.2,1.1-.9,1.1-.4,1.1-1.9,2.6s-1.5,1.6-2,2.8c-.6,1.2-1.1,1.5-1.8,2.6-.7,1.2-1,2.1-1.7,3-.7.9-1.3,1.7-1.8,2.7-.8,1.7-2.8,4-3.8,5.7l-2.4,4.5c-.4.9-.5.8-.9,1.5-.6,1.1-.9,2.1-1.5,3.2-.3.5-.6.9-.8,1.3-.4.8-.4.7-.9,1.4-1.1,1.7-2.2,4.3-3,6.2-.6,1.5-2.6,4.5-3.5,5.9-.5.9-1.5,2-1.8,2.9-.4.7,0,.8-.6,1.5l-2.3,4.7c-.9,2.3-2.4,3.9-3.1,6.4-.3,1.2-1,1.8-1.7,2.9-.6.9-1.2,2-1.5,3.1-.6,1.7-1.8,3-2.6,4.5-.8,1.6-1.3,3.2-2.3,4.6l-3.1,6.2c-.5,1-1.2,2.1-1.5,3.2-.3,1.7-.9,1.7-1.4,3.1-1.1,3.2-1.5,3.1-2.2,4.9l-2.1,5c-.1.4-.5,1.2-.6,1.5-.2.7,0,1.2-.4,2-.7,1.6-.7,1.7-1.1,3.6-.4,1.8-1,3.6-1.8,5.1-.4.6-1.3,4.4-1.5,5.3-.2,1.1-.9,2.2-1.1,3.6s-.3.9-.6,1.8c-.1.5-.2,1.5-.3,2-.1.7-.1,1.4-.2,2.1-.1.9-.4,1.2-.6,1.8-.2.7,0,1.2-.2,2-.7,3.3-.2,2.4-.5,4.2-.1.8-.3,1.2-.5,1.9-.3,1.3,0,2.9-.4,4.2-1.1,3.4-.7,5.2-1,5.9-.3,1-.5.1-.5,1.8s-.5,2.4-.6,4.2c0,3.6-.2,2-.6,4.2l-1.2,5.6c-.2,1.4-.2,3-.5,4.2-.2.8,0,1.4-.2,2.2-.7,2.8-.1,5.9-.7,8.7-.3,1.4,0,2.9-.4,4.1-.9,3.1,0,6.5-.6,8.9-.2.9-.5.4-.5,1.8s0,1.3-.2,2.1c-.5,1.8,0,2.6-.3,4.2-.1.8-.4,1.1-.5,1.9-.1.8,0,1.4-.2,2.2-.9,3.7-.3.9-.5,3.7-.1,2.3-1.5,5.4-.2,8l.8,6.3c0,1.3.2.9.5,1.9.2.7,0,1.4.2,2.1.3,1.8.9,3.7,1.5,5.4.3.7.8,3.4,1,3.7.4.7.4.4.7,1.4.2.9.3,1,.7,1.7.9,1.5,1.3,3.4,1.8,5.1l2.4,4.6c.6.9,1.4,1.9,2.1,2.6.9.9,1.2,1.8,2,2.8.8,1,1.4,1.5,2.1,2.4.8,1,1.4,1.4,2.3,2.4,2.8,2.9,2.4,2.1,5.3,4l5.8,3.5c1.1.6,1.8,1.3,3,1.7,2.3.6,4.2,1.9,6.4,2.9l1.7.6c1.8.6,2.7,2,6.2,3.2.6.2,1.2.2,1.8.5,2.2,1,4.3,1.7,6.7,2.5,1.2.4,2.4.5,3.7,1,.9.4,2.4.3,3.9.9,1.5.6,5.4,2.1,7,2.3.7,0,1.5,0,2.2,0,.8,0,1,.4,1.8.5,1,.1,1.2,0,2,.4,1,.5.7.2,2,.3.9,0,1,.2,1.8.4.8.2,1.5,0,2.2.1.9.1.9.4,1.8.6.7,0,1.6,0,2.3,0,.8,0,1,.4,1.9.5.7.1,1.5,0,2.3,0,1.9,0,2.4.6,4,.7,2.1.2,4.5-.1,6.6.4,2.9.6,8.1-.7,11,.6.3.1,20.7.7,22.8,0,2-.7,6.3-.8,8.4-.9,1.7,0,2-.7,4-.7s4.6.3,6.5-.3c1.8-.6,27.4-.2,30.3-.2,1.5,0,1.2-.6,3.8-.6,4.2,0,14.9.5,18.1-.7,1-.4,2.7-.6,3.8-.9.9-.2,2.8-.7,3.3-1.2.4-.4,2.7-1,3.5-1.3,2.3-.9,1.4-.9,3.3-1.2.9-.1,1-.4,1.6-.7.6-.3,1.1-.2,1.8-.6,3.3-1.6,2-.4,4.9-4.5l1.8-2.7c2-2.7,3.1-2.1,2.5-6.1-.6-4.3,1-8.3-.3-12.8-.3-1-2.9-4.6-3.7-5.7-.7-.9-.9-1.8-1.7-2.9-2.3-3.6-3.5-4.2-6.6-7.3-.8-.8-1.5-1.3-2.2-2.3-.6-.8-1.2-2.1-1.7-3-1.2-2.1-2.3-4.3-1.8-7.3.6-3.2.6-3.7,3.1-6.2,3.5-3.4,8.7-5.4,13.8-3.8,1,.3,2.6.9,3.2,1.5,1.2,1.5,1.2,1.3,1.9,2.7h0ZM351.4,125.5c-.8-.2-.1-.2-.9-.7-.6-.3-.7-.1-1.2-.4l-2.1-1.1c-1-.6-1.5-.6-2.3-1-1.7-.9,0-.3-2.4-.9-3.3-.7-3-.9-5.1-1.4-6.2-1.5-9.8-2.7-16.9-2.8-2.2,0-4.2-.2-6.4-.2s-1.9.2-2.9.3c-1.1,0-2.2,0-3.2.2-1.7.2-3.7.7-5.6.9l-5.4,1.2c-.6.2-1.5.6-2.4.9-.6.2-.7.3-1.1.6-.5.2-.8.2-1.3.3-1.7.3-6.7,2.4-8,1.2-3.9-3.9-9-6.6-13.8-9.4,0-2-.7-7.4-1.5-8.7-.6-1-1.1-2.3-1.5-3.5-.6-1.6-1.6-2.4-1.7-3.5.6-.7,5.1-3.5,5.3-3.7.7-.7.2-.6,1.2-1,3.7-1.8,4.1-3.4,6.3-5.1.4-.3.9-.6,1.2-1,.4-.4.8-.9,1.2-1.2.7-.6,5.4-2.5,6.4-2.6,1.5-.2.7-.2,1.8-.4.7-.1,1.4-.2,2.1-.2h9.1c2.9.4,11.4.5,12.6,1,2.5,1,6.6,3.2,7.7,3.7,1.3.6.6.2,1.4.9l3.1,1.4c1.3.6,4.3,2.4,5.4,3.6,2.8,2.8,1.9,1.6,4.2,4.9l4.3,5.9c.6.4,0-.3.5.6,1.2,2.2,3.1,4.8,4.3,7.1.6,1.1,1.2,1.7,1.7,2.8.4.9,1,2.1,1.6,2.9.4.7.6.5,1.8,2.7.8,1.4.6.7,1.7,2.9.3.7.3,1.1.7,1.7.5.6.9.5.2,1.4h0ZM290.9,79.2c-2.8,0-5.8.8-8.1,1.9-1.5.7-2.9,1.3-4.2,2.3-3.6,2.6-2.8,2.6-5.1,4.7-1.2,1.1-2.7,1.8-3.9,2.8-.7.6-5.3,3.8-5.9,3.8s-1.2-1-1.7-1.6c-1-1.5-3.2-4.1-4.8-5.1-.7-.5-1.2-.9-1.8-1.4-4.3-3.4-7.4-5.3-12.5-7.1-1.3-.5-2.7-.7-4.2-.9-.3,0-1-.2-1.3-.2-4.8-.9-9.9-.9-14.9-1.5-2.4-.2-7-.3-9.3,0-2,.3-4.2.1-6.2.3-1,0-1.8.4-2.9.4-5,0-8.5,1.2-12.6,3.7l-6.3,3.5c-.8.4-1.5.7-2.1,1.2-1.3.9-2.3,1.8-3.4,2.9-5.3,5.3-2.8,3.1-5.9,7.1-2.6,3.3-5,7.1-7,10.8-.9,1.8-1.5,3.8-2.9,5.2-1.2,1.1-2,2.3-2.9,3.5-1,1.3-2.1,2-3.1,3.3-1.3,1.8-3.5,3.4-4.5,5.3-.7,1.3-2.2,3.7-3.4,4.8-1.4,1.2-2.6,2.8-4,4.2l-1.7,1.7c-1.1,1.1-1.8,2.4-3,3.5-.9.8-2,2.8-2.7,3.9-.4.7-.9,1.3-1.3,2-.4.7-.7,1.4-1.2,2.1l-5.1,7.7c-.4.7-.9,1.2-1.3,2-2.2,4-3,6.2-5.6,10.5-2.1,3.4-3.5,7.2-5.6,10.7l-5.8,10.4c-.4.7-.5,1.5-1,2.3-.9,1.4-1.5,2.8-2.2,4.3l-4.5,8.6c-.3.6-.8,1.5-1.2,2.1-.9,1.4-1.4,2.8-2.2,4.3-.4.8-.7,1.3-1.2,2.1-2.3,4.6-3.1,6.1-5.1,11l-.9,2.4c-.7,1.6-1.7,2.7-2.1,4.4-.4,1.5-1.3,2.9-1.8,4.5-.2.5-.3.8-.4,1.2-.2.5-.2.8-.3,1.3l-2.3,7.5c-.3.9-.7,1.3-1,2.3-1,3.7-2.4,7.6-3.1,11.4,0,.4-.2.9-.4,1.3-.2.9,0,1.9-.4,2.9-.1.4-.3.7-.4,1.2l-.4,2.8c0,1.5,0,3.2-.4,4.5-.2.8-.3,2.1-.4,2.9-.1,1.8-.8,3.5-1,5.3-.2,1.5,0,1.5-.4,2.9-.3,1,0,1.9-.4,2.9-.4,1.2-.4,1.3-.4,2.9,0,2.8-2,9-2,10.8,0,2.2-.2,1.4-.3,2.9-.2,1.4,0,1.6-.4,2.9-.5,1.8-.1,3.8-.2,5.6l-.4,2.8c-.2,1,0,2.4-.2,3.1-.6,3.2-.4,2.3-.4,5.9s0,2.3-.2,3c-.5,1.9-.3.7-.5,2.8,0,1-.5,1.7-.6,2.7,0,1.9.1,2.7-.4,4.5-.3,1.2-.4,2.9-.7,4.2-.3,1-.1,1.9-.2,3.1,0,1.2-.2,1.6-.2,2.8l.6,8.8c.2.9.4,1.7.5,2.6,0,1.4.3,1.4.5,2.4.7,3.1.5,4,1.7,7.4.9,2.5,1.2,4,2.3,6.5.6,1.3,1.3,2.8,1.7,4.2.2.9.4,1.5.8,2.3.4.7.7,1.1,1,1.9,2.1,4.2,2,3.1,4.2,6.1,1,1.4,2,2.9,3.2,4.2,2,2,3.9,3.9,6,5.8.6.6,1.3.6,2.1,1,.7.4,1.1.7,1.7,1.2,1.8,1.2,3.9,2.2,5.6,3.4,2.3,1.5,3.9,1.6,6,2.8,1.3.7,2.6,1.5,4,2,1,.4,1.3.3,2.2.9,1.2.9,2.4,1.6,3.9,2.1.7.3,1.5.4,2.2.7l4.3,1.7c2.4.8,4.6,1.2,6.9,2.1,1,.4,1.5.2,2.4.4,3.2.7,5.9,2.6,9.2,2.6,2.1,0,8.8,1.7,10.2,1.8.6,0,1,0,1.6,0,.3,0,.7.2,1.1.3,1,.2,1.6,0,2.7.2.9,0,1.4.5,2.4.6,1,0,2,.1,2.8.2,2.3.2,1.2.2,2.6.5,1.8.4,4-.2,5.9.1,1,.2,1.3.5,2.4.5,2,0,4,0,6,0,3.8,0,4,.6,5.3.6h21c1.2,0,1.6-.6,3.2-.6s2.1-.3,3.3-.5,2.6,0,3.7,0c.6,0,.9-.3,1.3-.4,2.7-.7,6.2.2,8.7-.6,1.7-.6,5.1-.2,7.2-.2h22.3c1.8,0,2-.4,3.2-.6,2.8-.2,11.3,0,14.9,0s7.6-1.5,9.1-2c1-.3,2.1-.4,3-.8,2.2-1.3,7-2.6,7.9-3.2.6-.4.7-.4,1.4-.6.4-.2.7-.4,1.2-.6,5.8-2.9,7.2-8.6,8.6-8.9.4,0,.5,0,.9,0,.1.6.3.8.5,1.3,1.1,2.8,1.7,5.3,4.4,7,.7.4,1.5.8,2.2,1.2.9.6,1,.9,2,1.3l4.1,2.4c.5.3.6.4,1,.7,1.7,1,3.3,2.1,4.8,3.4.7.6,1.2.9,1.9,1.3,2,1.3,6.1,4.3,8.1,5.1l4.7,2c2.4,1,2.9.8,5.3,1.2,2.8.5,3,.8,5.9.8s1.7.3,2.9.4c3,.2,6.2.7,9.2.7s6.7-.4,9.7.3c1.9.4,4.3.2,6.3.2,1.2,0,1.7.4,2.9.4h7.4l8.1-.8c2.4-.4,4.5-1.2,6.9-1.8,1.2-.4,2.3-.6,3.5-.8,1.5-.2,2-.7,3.4-1,2.3-.5,4.5-1.3,6.4-2.3l3-1.3c2-.8,3.6-2.1,5.6-3.1,2.8-1.4,2.1-1.3,4-2.6.5-.3.9-.5,1.4-.8,2.8-2.1,4.6-5.4,4.6-9.3s-1.8-5.9-2.3-6.9c-1.5-3.1-2.4-6.4-4-9.4-1-2-2.1-3.6-3.3-5.6-.6-1-1.2-1.6-1.8-2.5-2.8-3.8-3-7.5-6.2-11.7-.7-.9-1.2-1.7-1.9-2.6l-4.2-4.6c-2.3-2.2-5.6-8.1-10-12.3l-4.6-4.2c-.4-.4-1-.6-1.4-1l-3.5-2.8c-1.8-1.3-3.5-2.4-5.3-3.5-1.8-1.2-3.9-2-5.8-3.1-2.5-1.5-4.9-2.1-6.7-4.5-.4-.6-.6-.7-1-1.2-3.1-3.7-.4-4,2.1-7.2,2.9-3.7,4.2-4.8,6.1-9.4l1-2.8c.6-2.2.9-7.4.1-9.6-.2-.5-.9-2-.9-2.6,0-1.1,3.1-4.8,4-5.8,1.1-1,1.8-2.4,2.8-3.6,2.5-3.1,2.8-5.3,2.8-9.3s-1.3-4.3-2.1-5.4c-1.3-1.7-2.3-.8,2.3-6.9l3.1-3.4c1.2-1,2.4-2,3.2-3.3,2.5-3.8,4-5.3,4-10.5s-3.3-8.1-4.1-9.5c-.6-1-1.6-2-2.4-2.9-.9-1-2-1.3-2.4-2.6-.2-.8-.4-1.7-.7-2.6-.9-2.4-2.1-4.6-3.7-6.6-.5-.7-.9-1.3-1.4-1.9-.9-1-2.2-2.9-3.2-3.7-4.6-3.8-3.5-3.7-1-6.2.9-.9,1.4-1.3,2.1-2.4,4.4-6,2.3-2.6,5.3-8.5.6-1.2.9-2.1,1-3.5.5-4,1.2-6.1.6-10.3-.1-.7,0-1.3,0-2.1-.1-1.3-.6-2.4-.6-4,0-2.6.6-4.4.6-6.9s-.2-6.5,0-6.7c1.1-.6,1.8.2,2.7-.9.4-.6.7-1.7.7-2.7,0-2.9-3.2-5.9-5-7.3l-9.1-5.9c-1.2-.6-3.1-1.1-3.6-2.3-1.3-2.6-2.5-5.1-4.5-7.3-.5-.6-.8-1-1.2-1.7-.9-1.3-4.5-5.1-5.8-6.2-1.4-1.3-8.7-6.4-10.4-7.5-.6-.4-1.2-.9-1.8-1.2-.5-.3-1.7-.7-2-1-.6-.6-.4-1.7-.6-2.5-1-4.4-3.7-8-5.9-11.8-.4-.7-.7-1.2-1-1.8l-4.5-7.4c-1-2-2.4-3.6-3.7-5.3-.4-.6-.7-1.1-1.2-1.7-1.7-2.4-3.2-4.5-5.3-6.5-2-2-4.3-3.7-6.9-5l-12.2-6.1c-2.7-1.2-7.6-1-11-1s-3.4-.4-5.4-.4h-7.2ZM199.7,242.1c1.5.9,1.5,3.1,0,3.4-.6.1-2.1,0-2.9-.1-1,0-1.9.2-2.9.2-3.7,0-6.7.8-10.1,1.5-4,.8-8.1,3.5-10.3,7.1-.6,1-1.5,3-3.2,2.4-3.4-1.2,2.4-7.3,3.9-8.4.6-.4,1.1-.9,1.6-1.3,2.7-2.1,7.2-3.3,10.7-3.9.9-.1,1.2-.4,2.4-.5,1.3-.2,9.9-.9,10.7-.4h0ZM345.4,222.3c2.6,0,5.6.1,8-.5,1.2-.3,3.4-1.3,3.8.6.2,1.1,0,1.7-.7,2-.5.3-1.3.7-1.9.9-5.1,1-8.6.6-13.8.2,0,.2,1.8,1.7,2.7,2.8l2.6,3.2c1.8,2.3,5.2,5.1,7.9,9.3.4.7.4.6.7,1.3,2.2,4.5-1.2,4.2-2,3.4-.7-.6-1.9-3.4-2.9-4.7-.3-.4-.5-.5-.9-.9-1.2-1.5,0-.5-1.7-2.1l-2.9-2.9c-3.1-3.4-3.2-5-7.5-7.9-2-1.3-.8-.7-2.3-1.5-.6-.3-2.4-1.8-4.7-2.9-1.8-.9-3.5-1.3-5.1-2.6-2-1.7-.2-4.1,2.6-2.6,1.3.7,10,3.5,11.4,3.9.6.1,1.1.1,1.6.2,1.9.3,3,.7,5.3.7Z"
    style="fill: #000100; fill-rule: evenodd"
  />
</svg>
