<svg xmlns="http://www.w3.org/2000/svg" viewBox="0 0 389 389">
<g>
    <path 
        style="opacity:0.999" 
        fill="#1e3b36" 
        d="M 318.5,14.5 C 314.589,14.0494 310.756,14.0494 307,14.5C 304.496,12.0075 301.496,10.3408 298,9.5C 295.973,9.98632 293.807,9.98632 291.5,9.5C 291.36,7.87623 292.027,6.70956 293.5,6C 290.779,5.43185 288.112,5.09851 285.5,5C 287.227,6.74304 287.894,8.57637 287.5,10.5C 288.833,11.1667 290.167,11.8333 291.5,12.5C 284.146,13.9678 283.813,16.1344 290.5,19C 289.167,19.3333 287.833,19.6667 286.5,20C 290.094,20.1357 293.594,20.3024 297,20.5C 299.354,18.16 301.854,17.9933 304.5,20C 303.579,21.756 302.412,21.9227 301,20.5C 299.37,21.7131 297.536,22.5464 295.5,23C 297.32,23.2004 298.653,24.0337 299.5,25.5C 295.603,24.0901 291.603,23.0901 287.5,22.5C 273.704,18.7428 259.704,18.5761 245.5,22C 242.428,22.5784 239.761,23.745 237.5,25.5C 226.157,28.337 216.491,34.0036 208.5,42.5C 202.167,46.8333 196.833,52.1667 192.5,58.5C 172.461,79.2044 152.794,100.204 133.5,121.5C 171.47,158.803 209.804,195.803 248.5,232.5C 252.5,236.833 256.5,241.167 260.5,245.5C 259.903,245.735 259.57,246.235 259.5,247C 261.333,250.5 263.167,254 265,257.5C 265.494,259.134 265.66,260.801 265.5,262.5C 262.989,263.76 260.656,265.427 258.5,267.5C 257.928,269.917 256.928,272.084 255.5,274C 252.832,276.663 249.832,278.83 246.5,280.5C 249.129,277.369 251.962,274.369 255,271.5C 255.667,270.167 255.667,268.833 255,267.5C 247.663,260.995 240.496,254.328 233.5,247.5C 224.193,238.528 214.86,229.528 205.5,220.5C 182.86,198.861 160.193,177.194 137.5,155.5C 132.41,149.073 126.41,143.74 119.5,139.5C 110.805,147.194 102.805,155.528 95.5,164.5C 78.5294,181.306 62.0294,198.639 46,216.5C 44.878,218.407 44.0447,220.407 43.5,222.5C 40.0346,225.406 37.5346,229.073 36,233.5C 33.1195,240.931 31.1195,248.597 30,256.5C 29.5671,268.657 29.5671,280.657 30,292.5C 32.4701,297.097 34.6367,301.763 36.5,306.5C 43.521,324.997 54.8544,340.497 70.5,353C 106.309,375.304 141.976,374.97 177.5,352C 191.675,337.992 205.675,323.825 219.5,309.5C 218.489,311.372 217.655,313.372 217,315.5C 205.731,324.766 195.897,335.266 187.5,347C 188.126,347.75 188.626,348.584 189,349.5C 189.718,348.549 190.551,348.383 191.5,349C 190.912,352.154 190.412,355.654 190,359.5C 189.439,360.022 188.772,360.355 188,360.5C 185.75,357.09 182.917,356.59 179.5,359C 180.629,361.168 182.129,361.668 184,360.5C 184.638,361.609 185.138,362.775 185.5,364C 183.042,365.434 180.542,367.6 178,370.5C 174.509,368.323 170.842,367.656 167,368.5C 164.815,368.079 162.649,367.579 160.5,367C 162.384,366.784 164.051,366.117 165.5,365C 165,364.5 164.5,364 164,363.5C 161.457,364.207 159.291,365.54 157.5,367.5C 137.869,372.144 117.869,372.644 97.5,369C 93.416,367.452 89.416,365.619 85.5,363.5C 82.3429,364.374 80.0095,363.207 78.5,360C 76.5789,359.64 74.9122,358.806 73.5,357.5C 72.8076,358.025 72.3076,358.692 72,359.5C 68.5957,357.052 64.7624,357.052 60.5,359.5C 59.8076,358.975 59.3076,358.308 59,357.5C 56.8816,358.283 55.3816,359.616 54.5,361.5C 23.6485,335.094 9.81516,301.428 13,260.5C 15.4523,236.278 24.4523,214.945 40,196.5C 80.3686,153.133 120.369,109.466 160,65.5C 172.167,53.3333 184.333,41.1667 196.5,29C 229.746,2.42022 266.746,-4.24645 307.5,9C 311.507,10.3366 315.173,12.1699 318.5,14.5 Z"
    />
</g>
<g>
    <path 
        style="opacity:0.999" 
        fill="#1e3936" 
        d="M 318.5,14.5 C 347.668,30.7781 366.835,55.1114 376,87.5C 383.975,123.116 377.642,155.783 357,185.5C 312.767,233.644 268.767,281.977 225,330.5C 214.5,341 204,351.5 193.5,362C 165.611,383.47 134.278,390.804 99.5,384C 82.2265,380.697 67.2265,373.197 54.5,361.5C 55.3816,359.616 56.8816,358.283 59,357.5C 59.3076,358.308 59.8076,358.975 60.5,359.5C 64.7624,357.052 68.5957,357.052 72,359.5C 72.3076,358.692 72.8076,358.025 73.5,357.5C 74.9122,358.806 76.5789,359.64 78.5,360C 80.0095,363.207 82.3429,364.374 85.5,363.5C 89.416,365.619 93.416,367.452 97.5,369C 117.869,372.644 137.869,372.144 157.5,367.5C 159.291,365.54 161.457,364.207 164,363.5C 164.5,364 165,364.5 165.5,365C 164.051,366.117 162.384,366.784 160.5,367C 162.649,367.579 164.815,368.079 167,368.5C 170.842,367.656 174.509,368.323 178,370.5C 180.542,367.6 183.042,365.434 185.5,364C 185.138,362.775 184.638,361.609 184,360.5C 182.129,361.668 180.629,361.168 179.5,359C 182.917,356.59 185.75,357.09 188,360.5C 188.772,360.355 189.439,360.022 190,359.5C 190.412,355.654 190.912,352.154 191.5,349C 190.551,348.383 189.718,348.549 189,349.5C 188.626,348.584 188.126,347.75 187.5,347C 195.897,335.266 205.731,324.766 217,315.5C 217.655,313.372 218.489,311.372 219.5,309.5C 228.161,299.506 237.161,289.839 246.5,280.5C 249.832,278.83 252.832,276.663 255.5,274C 256.928,272.084 257.928,269.917 258.5,267.5C 260.656,265.427 262.989,263.76 265.5,262.5C 265.66,260.801 265.494,259.134 265,257.5C 263.167,254 261.333,250.5 259.5,247C 259.57,246.235 259.903,245.735 260.5,245.5C 262.963,247.461 265.297,249.628 267.5,252C 268.635,252.749 269.635,252.583 270.5,251.5C 293.484,226.682 316.65,202.016 340,177.5C 350.276,164.506 356.776,149.839 359.5,133.5C 361.886,121.341 362.053,109.008 360,96.5C 359.768,95.2625 359.268,94.2625 358.5,93.5C 351.9,63.3261 334.567,41.6594 306.5,28.5C 304.176,27.3443 301.843,26.3443 299.5,25.5C 298.653,24.0337 297.32,23.2004 295.5,23C 297.536,22.5464 299.37,21.7131 301,20.5C 302.412,21.9227 303.579,21.756 304.5,20C 301.854,17.9933 299.354,18.16 297,20.5C 293.594,20.3024 290.094,20.1357 286.5,20C 287.833,19.6667 289.167,19.3333 290.5,19C 283.813,16.1344 284.146,13.9678 291.5,12.5C 290.167,11.8333 288.833,11.1667 287.5,10.5C 287.894,8.57637 287.227,6.74304 285.5,5C 288.112,5.09851 290.779,5.43185 293.5,6C 292.027,6.70956 291.36,7.87623 291.5,9.5C 293.807,9.98632 295.973,9.98632 298,9.5C 301.496,10.3408 304.496,12.0075 307,14.5C 310.756,14.0494 314.589,14.0494 318.5,14.5 Z"
    />
</g>
<g>
    <path
    style="opacity:1" 
    fill="#fdfefd" 
    d="M 287.5,22.5 C 291.603,23.0901 295.603,24.0901 299.5,25.5C 301.843,26.3443 304.176,27.3443 306.5,28.5C 312.054,34.5574 317.888,40.5574 324,46.5C 339.047,69.4126 343.714,94.4126 338,121.5C 336.667,125.5 335.333,129.5 334,133.5C 329.678,143.485 324.345,152.818 318,161.5C 296.639,184.193 275.305,206.86 254,229.5C 252.736,231.607 250.903,232.607 248.5,232.5C 209.804,195.803 171.47,158.803 133.5,121.5C 152.794,100.204 172.461,79.2044 192.5,58.5C 198.167,53.5 203.5,48.1667 208.5,42.5C 216.491,34.0036 226.157,28.337 237.5,25.5C 253.935,21.4263 270.601,20.4263 287.5,22.5 Z"
    />
</g>
<g>
    <path 
        style="opacity:1" 
        fill="#aab8b7" 
        d="M 287.5,22.5 C 270.601,20.4263 253.935,21.4263 237.5,25.5C 239.761,23.745 242.428,22.5784 245.5,22C 259.704,18.5761 273.704,18.7428 287.5,22.5 Z"
    />
</g>
<g><path style="opacity:1" fill="#9bb0ad" d="M 208.5,42.5 C 203.5,48.1667 198.167,53.5 192.5,58.5C 196.833,52.1667 202.167,46.8333 208.5,42.5 Z"/></g>
<g>
    <path 
        style="opacity:1" 
        fill="#b6cac9" 
        d="M 306.5,28.5 C 334.567,41.6594 351.9,63.3261 358.5,93.5C 359.425,106.804 359.758,120.137 359.5,133.5C 356.776,149.839 350.276,164.506 340,177.5C 316.65,202.016 293.484,226.682 270.5,251.5C 269.635,252.583 268.635,252.749 267.5,252C 265.297,249.628 262.963,247.461 260.5,245.5C 256.5,241.167 252.5,236.833 248.5,232.5C 250.903,232.607 252.736,231.607 254,229.5C 275.305,206.86 296.639,184.193 318,161.5C 324.345,152.818 329.678,143.485 334,133.5C 335.333,129.5 336.667,125.5 338,121.5C 343.714,94.4126 339.047,69.4126 324,46.5C 317.888,40.5574 312.054,34.5574 306.5,28.5 Z"
    />
</g>
<g>
    <path 
        style="opacity:1" 
        fill="#7a9592" 
        d="M 358.5,93.5 C 359.268,94.2625 359.768,95.2625 360,96.5C 362.053,109.008 361.886,121.341 359.5,133.5C 359.758,120.137 359.425,106.804 358.5,93.5 Z"
    />
</g>
<g>
    <path 
        style="opacity:1" 
        fill="#5fca88" 
        d="M 137.5,155.5 C 160.193,177.194 182.86,198.861 205.5,220.5C 208.661,224.21 210.828,228.543 212,233.5C 217.736,232.246 219.736,234.58 218,240.5C 217.696,242.441 216.863,244.107 215.5,245.5C 216.167,246.167 216.833,246.833 217.5,247.5C 216.305,248.967 216.305,250.467 217.5,252C 217.333,252.5 217.167,253 217,253.5C 215.667,252.167 214.333,252.167 213,253.5C 212,255.833 211,258.167 210,260.5C 208.667,259.167 207.333,259.167 206,260.5C 204.461,263.415 203.628,266.248 203.5,269C 199.5,269.667 195.5,269.667 191.5,269C 194.146,268.503 196.813,268.336 199.5,268.5C 199.261,266.533 199.594,264.699 200.5,263C 198.137,262.411 197.137,260.911 197.5,258.5C 194.509,258.67 192.509,257.337 191.5,254.5C 193.325,251.778 195.658,251.111 198.5,252.5C 199.429,251.311 199.762,249.978 199.5,248.5C 196.5,248.5 193.5,248.5 190.5,248.5C 190.684,244.921 190.017,241.587 188.5,238.5C 185.566,239.289 183.732,241.289 183,244.5C 179.14,245.693 176.64,248.193 175.5,252C 176.297,255.745 176.797,259.579 177,263.5C 177.667,262.167 178.333,262.167 179,263.5C 179.202,265.256 179.702,266.922 180.5,268.5C 183.333,268.582 186.333,268.748 189.5,269C 190.337,270.011 190.67,271.178 190.5,272.5C 192.202,274.554 195.036,275.887 199,276.5C 200.406,278.364 200.906,280.197 200.5,282C 199.929,283.205 199.262,284.372 198.5,285.5C 197.614,284.675 197.281,283.675 197.5,282.5C 195.567,282.271 193.9,281.438 192.5,280C 195.167,279.333 195.167,278.667 192.5,278C 188.235,276.801 185.569,278.301 184.5,282.5C 184.598,284.937 185.598,286.937 187.5,288.5C 186.264,289.357 184.931,290.023 183.5,290.5C 183.805,286.814 183.305,283.147 182,279.5C 181.667,279.167 181.333,278.833 181,278.5C 179.4,279.866 177.567,280.866 175.5,281.5C 172.637,285.893 170.304,290.56 168.5,295.5C 169.552,297.43 170.886,298.93 172.5,300C 171.929,301.205 171.262,302.372 170.5,303.5C 169.41,302.273 168.076,301.44 166.5,301C 167.833,299.667 167.833,298.333 166.5,297C 158.556,292.115 154.722,294.282 155,303.5C 155.915,302.672 156.581,301.672 157,300.5C 157.18,302.488 157.014,304.488 156.5,306.5C 160.456,307.053 160.456,307.886 156.5,309C 160.082,309.595 160.416,310.929 157.5,313C 158.167,313.667 158.833,314.333 159.5,315C 158.151,315.772 157.318,316.939 157,318.5C 155.16,317.167 154.66,317.334 155.5,319C 153.396,319.791 152.063,321.291 151.5,323.5C 151.225,320.912 151.225,317.912 151.5,314.5C 149.041,313.357 146.707,313.69 144.5,315.5C 139.322,315.418 135.656,313.084 133.5,308.5C 134.95,307.15 135.617,305.484 135.5,303.5C 131.303,303.194 129.303,305.194 129.5,309.5C 127.5,309.5 125.5,309.5 123.5,309.5C 123.081,312.325 124.081,314.491 126.5,316C 128.582,315.068 130.915,314.568 133.5,314.5C 133.357,316.262 133.691,317.929 134.5,319.5C 133.833,320.167 133.167,320.833 132.5,321.5C 133.415,322.328 134.081,323.328 134.5,324.5C 134,326.5 133.5,328.5 133,330.5C 130.679,331.361 129.513,330.361 129.5,327.5C 133.102,327.322 133.102,326.322 129.5,324.5C 127.792,326.691 125.792,327.024 123.5,325.5C 122.304,325.846 122.304,326.346 123.5,327C 122.101,327.595 120.768,327.428 119.5,326.5C 118.452,327.383 117.285,328.05 116,328.5C 112.322,327.709 108.822,326.543 105.5,325C 105.374,323.026 105.208,320.859 105,318.5C 104.837,316.324 104.004,314.491 102.5,313C 103.167,312.667 103.833,312.333 104.5,312C 103.376,311.751 102.376,311.251 101.5,310.5C 102.246,309.264 102.579,307.93 102.5,306.5C 101.5,306.5 100.5,306.5 99.5,306.5C 99.7525,309.32 99.2525,311.986 98,314.5C 97.6667,313.5 97.3333,312.5 97,311.5C 95.2533,310.67 93.5866,309.67 92,308.5C 90.2703,309.649 88.6037,309.649 87,308.5C 85.8909,312.017 84.7242,312.184 83.5,309C 85.8233,306.027 87.1566,302.694 87.5,299C 87.439,296.358 86.439,294.191 84.5,292.5C 84.1667,292.833 83.8333,293.167 83.5,293.5C 84.5,294.833 85.5,296.167 86.5,297.5C 86.1924,298.308 85.6924,298.975 85,299.5C 84.2825,298.549 83.4491,298.383 82.5,299C 80.7978,303.69 78.1311,303.69 74.5,299C 76.291,295.38 76.291,291.547 74.5,287.5C 74.9186,286.328 75.5853,285.328 76.5,284.5C 77.9497,286.605 78.783,288.605 79,290.5C 80.2989,289.91 81.1322,288.91 81.5,287.5C 80.6102,286.045 80.6102,284.711 81.5,283.5C 78.8605,278.587 76.3605,273.587 74,268.5C 74.3333,264.833 74.6667,261.167 75,257.5C 73.8873,258.305 72.7206,258.972 71.5,259.5C 69.5295,258.838 67.5295,258.172 65.5,257.5C 63.4189,259.288 61.4189,261.121 59.5,263C 59.3758,273.552 59.5425,284.052 60,294.5C 58.6914,296.891 57.6914,296.891 57,294.5C 56.2184,289.701 56.7184,285.034 58.5,280.5C 57.7144,275.02 55.881,270.02 53,265.5C 52.3623,266.609 51.8623,267.775 51.5,269C 52.9311,271.796 54.2644,274.63 55.5,277.5C 55.104,280.435 54.104,283.102 52.5,285.5C 53.096,288.912 51.4293,290.579 47.5,290.5C 47.3601,288.876 48.0267,287.71 49.5,287C 48.5399,285.581 47.7065,284.081 47,282.5C 45.108,281.87 43.4413,280.87 42,279.5C 40.173,281.24 40.3397,282.907 42.5,284.5C 41.011,284.533 39.6776,285.033 38.5,286C 41.1667,286.667 41.1667,287.333 38.5,288C 39.9825,290.573 39.4825,292.74 37,294.5C 36.9878,290.727 35.8211,287.394 33.5,284.5C 34.6882,284.693 36.0215,284.193 37.5,283C 33.1112,280.471 31.4446,276.637 32.5,271.5C 32.7883,263.304 33.7883,254.97 35.5,246.5C 37.1407,243.442 37.9741,240.108 38,236.5C 39.8333,234.333 41.6667,232.167 43.5,230C 42.4639,228.224 42.4639,226.391 43.5,224.5C 43.5,223.833 43.5,223.167 43.5,222.5C 45.4626,220.721 47.6293,219.054 50,217.5C 58.5142,203.482 69.3475,191.482 82.5,181.5C 86.4983,175.511 90.8316,169.845 95.5,164.5C 103.722,160.634 109.888,154.634 114,146.5C 115.719,144.443 117.719,142.776 120,141.5C 121.225,141.862 122.391,142.362 123.5,143C 124.207,145.543 125.54,147.709 127.5,149.5C 130.253,150.498 132.253,152.331 133.5,155C 134.793,155.49 136.127,155.657 137.5,155.5 Z"
    />
</g>
<g>
    <path 
        style="opacity:1" 
        fill="#58ad7e" 
        d="M 137.5,155.5 C 136.127,155.657 134.793,155.49 133.5,155C 132.253,152.331 130.253,150.498 127.5,149.5C 125.54,147.709 124.207,145.543 123.5,143C 122.391,142.362 121.225,141.862 120,141.5C 117.719,142.776 115.719,144.443 114,146.5C 109.888,154.634 103.722,160.634 95.5,164.5C 102.805,155.528 110.805,147.194 119.5,139.5C 126.41,143.74 132.41,149.073 137.5,155.5 Z"
    />
</g>
<g>
    <path 
        style="opacity:1" 
        fill="#56a97b" 
        d="M 95.5,164.5 C 90.8316,169.845 86.4983,175.511 82.5,181.5C 69.3475,191.482 58.5142,203.482 50,217.5C 47.6293,219.054 45.4626,220.721 43.5,222.5C 44.0447,220.407 44.878,218.407 46,216.5C 62.0294,198.639 78.5294,181.306 95.5,164.5 Z"
    />
</g>
<g>
    <path 
        style="opacity:1" 
        fill="#5ec88a" 
        d="M 205.5,220.5 C 214.86,229.528 224.193,238.528 233.5,247.5C 234.974,249.927 234.807,252.26 233,254.5C 212.833,276 192.667,297.5 172.5,319C 166.862,324.15 160.862,328.817 154.5,333C 150.074,335.529 145.408,337.362 140.5,338.5C 134.929,340.452 129.262,341.119 123.5,340.5C 123.847,338.86 123.347,337.193 122,335.5C 116.621,339.356 110.787,341.023 104.5,340.5C 103.274,336.184 101.941,331.851 100.5,327.5C 98.5592,329.834 96.8925,332.334 95.5,335C 97.1247,335.853 97.4581,336.853 96.5,338C 95.0654,337.689 93.7321,337.855 92.5,338.5C 91.5,338.167 90.8333,337.5 90.5,336.5C 92.0534,335.561 93.3867,334.394 94.5,333C 93.6447,331.549 93.4781,330.049 94,328.5C 90.6951,330.106 89.1951,332.773 89.5,336.5C 86.3085,335.28 82.9752,334.447 79.5,334C 81.1591,332.159 83.1591,330.992 85.5,330.5C 86.2143,328.126 87.5476,326.126 89.5,324.5C 91.4197,316.741 88.4197,312.075 80.5,310.5C 79.8478,309.275 78.6811,308.608 77,308.5C 75.8333,308.667 74.6667,308.833 73.5,309C 71.5243,312.21 70.8576,315.543 71.5,319C 69.925,318.621 68.425,318.788 67,319.5C 66.3131,317.432 66.4798,315.432 67.5,313.5C 65.0087,312.459 65.0087,311.626 67.5,311C 66.5,310.167 65.5,309.333 64.5,308.5C 65.4709,307.038 65.1376,305.705 63.5,304.5C 64.3094,302.929 64.6427,301.262 64.5,299.5C 67.4475,299.777 70.2809,299.444 73,298.5C 71.5016,285.531 71.0016,272.531 71.5,259.5C 72.7206,258.972 73.8873,258.305 75,257.5C 74.6667,261.167 74.3333,264.833 74,268.5C 76.3605,273.587 78.8605,278.587 81.5,283.5C 80.6102,284.711 80.6102,286.045 81.5,287.5C 81.1322,288.91 80.2989,289.91 79,290.5C 78.783,288.605 77.9497,286.605 76.5,284.5C 75.5853,285.328 74.9186,286.328 74.5,287.5C 76.291,291.547 76.291,295.38 74.5,299C 78.1311,303.69 80.7978,303.69 82.5,299C 83.4491,298.383 84.2825,298.549 85,299.5C 85.6924,298.975 86.1924,298.308 86.5,297.5C 85.5,296.167 84.5,294.833 83.5,293.5C 83.8333,293.167 84.1667,292.833 84.5,292.5C 86.439,294.191 87.439,296.358 87.5,299C 87.1566,302.694 85.8233,306.027 83.5,309C 84.7242,312.184 85.8909,312.017 87,308.5C 88.6037,309.649 90.2703,309.649 92,308.5C 93.5866,309.67 95.2533,310.67 97,311.5C 97.3333,312.5 97.6667,313.5 98,314.5C 99.2525,311.986 99.7525,309.32 99.5,306.5C 100.5,306.5 101.5,306.5 102.5,306.5C 102.579,307.93 102.246,309.264 101.5,310.5C 102.376,311.251 103.376,311.751 104.5,312C 103.833,312.333 103.167,312.667 102.5,313C 104.004,314.491 104.837,316.324 105,318.5C 105.208,320.859 105.374,323.026 105.5,325C 108.822,326.543 112.322,327.709 116,328.5C 117.285,328.05 118.452,327.383 119.5,326.5C 120.768,327.428 122.101,327.595 123.5,327C 122.304,326.346 122.304,325.846 123.5,325.5C 125.792,327.024 127.792,326.691 129.5,324.5C 133.102,326.322 133.102,327.322 129.5,327.5C 129.513,330.361 130.679,331.361 133,330.5C 133.5,328.5 134,326.5 134.5,324.5C 134.081,323.328 133.415,322.328 132.5,321.5C 133.167,320.833 133.833,320.167 134.5,319.5C 133.691,317.929 133.357,316.262 133.5,314.5C 130.915,314.568 128.582,315.068 126.5,316C 124.081,314.491 123.081,312.325 123.5,309.5C 125.5,309.5 127.5,309.5 129.5,309.5C 129.303,305.194 131.303,303.194 135.5,303.5C 135.617,305.484 134.95,307.15 133.5,308.5C 135.656,313.084 139.322,315.418 144.5,315.5C 146.707,313.69 149.041,313.357 151.5,314.5C 151.225,317.912 151.225,320.912 151.5,323.5C 152.063,321.291 153.396,319.791 155.5,319C 154.66,317.334 155.16,317.167 157,318.5C 157.318,316.939 158.151,315.772 159.5,315C 158.833,314.333 158.167,313.667 157.5,313C 160.416,310.929 160.082,309.595 156.5,309C 160.456,307.886 160.456,307.053 156.5,306.5C 157.014,304.488 157.18,302.488 157,300.5C 156.581,301.672 155.915,302.672 155,303.5C 154.722,294.282 158.556,292.115 166.5,297C 167.833,298.333 167.833,299.667 166.5,301C 168.076,301.44 169.41,302.273 170.5,303.5C 171.262,302.372 171.929,301.205 172.5,300C 170.886,298.93 169.552,297.43 168.5,295.5C 170.304,290.56 172.637,285.893 175.5,281.5C 177.567,280.866 179.4,279.866 181,278.5C 181.333,278.833 181.667,279.167 182,279.5C 183.305,283.147 183.805,286.814 183.5,290.5C 184.931,290.023 186.264,289.357 187.5,288.5C 185.598,286.937 184.598,284.937 184.5,282.5C 185.569,278.301 188.235,276.801 192.5,278C 195.167,278.667 195.167,279.333 192.5,280C 193.9,281.438 195.567,282.271 197.5,282.5C 197.281,283.675 197.614,284.675 198.5,285.5C 199.262,284.372 199.929,283.205 200.5,282C 200.906,280.197 200.406,278.364 199,276.5C 195.036,275.887 192.202,274.554 190.5,272.5C 190.67,271.178 190.337,270.011 189.5,269C 186.333,268.748 183.333,268.582 180.5,268.5C 179.702,266.922 179.202,265.256 179,263.5C 178.333,262.167 177.667,262.167 177,263.5C 176.797,259.579 176.297,255.745 175.5,252C 176.64,248.193 179.14,245.693 183,244.5C 183.732,241.289 185.566,239.289 188.5,238.5C 190.017,241.587 190.684,244.921 190.5,248.5C 193.5,248.5 196.5,248.5 199.5,248.5C 199.762,249.978 199.429,251.311 198.5,252.5C 195.658,251.111 193.325,251.778 191.5,254.5C 192.509,257.337 194.509,258.67 197.5,258.5C 197.137,260.911 198.137,262.411 200.5,263C 199.594,264.699 199.261,266.533 199.5,268.5C 196.813,268.336 194.146,268.503 191.5,269C 195.5,269.667 199.5,269.667 203.5,269C 203.628,266.248 204.461,263.415 206,260.5C 207.333,259.167 208.667,259.167 210,260.5C 211,258.167 212,255.833 213,253.5C 214.333,252.167 215.667,252.167 217,253.5C 217.167,253 217.333,252.5 217.5,252C 216.305,250.467 216.305,248.967 217.5,247.5C 216.833,246.833 216.167,246.167 215.5,245.5C 216.863,244.107 217.696,242.441 218,240.5C 219.736,234.58 217.736,232.246 212,233.5C 210.828,228.543 208.661,224.21 205.5,220.5 Z"
    />
</g>
<g>
    <path 
        style="opacity:1" 
        fill="#d2efe0" 
        d="M 76.5,234.5 C 85.0817,236.473 85.7483,240.306 78.5,246C 72.7816,249.106 70.2816,247.606 71,241.5C 73.8047,239.869 75.638,237.536 76.5,234.5 Z"
    />
</g>
<g>
    <path 
        style="opacity:1" 
        fill="#24523e" 
        d="M 43.5,222.5 C 43.5,223.167 43.5,223.833 43.5,224.5C 42.5416,224.953 41.7083,225.619 41,226.5C 30.2731,248.995 28.1064,272.328 34.5,296.5C 35.3739,299.789 36.0405,303.123 36.5,306.5C 34.6367,301.763 32.4701,297.097 30,292.5C 29.5671,280.657 29.5671,268.657 30,256.5C 31.1195,248.597 33.1195,240.931 36,233.5C 37.5346,229.073 40.0346,225.406 43.5,222.5 Z"
    />
</g>
<g>
    <path 
        style="opacity:1"
        fill="#62c38a" 
        d="M 43.5,224.5 C 42.4639,226.391 42.4639,228.224 43.5,230C 41.6667,232.167 39.8333,234.333 38,236.5C 37.9741,240.108 37.1407,243.442 35.5,246.5C 33.7883,254.97 32.7883,263.304 32.5,271.5C 31.4446,276.637 33.1112,280.471 37.5,283C 36.0215,284.193 34.6882,284.693 33.5,284.5C 35.8211,287.394 36.9878,290.727 37,294.5C 39.4825,292.74 39.9825,290.573 38.5,288C 41.1667,287.333 41.1667,286.667 38.5,286C 39.6776,285.033 41.011,284.533 42.5,284.5C 40.3397,282.907 40.173,281.24 42,279.5C 43.4413,280.87 45.108,281.87 47,282.5C 47.7065,284.081 48.5399,285.581 49.5,287C 48.0267,287.71 47.3601,288.876 47.5,290.5C 51.4293,290.579 53.096,288.912 52.5,285.5C 54.104,283.102 55.104,280.435 55.5,277.5C 54.2644,274.63 52.9311,271.796 51.5,269C 51.8623,267.775 52.3623,266.609 53,265.5C 55.881,270.02 57.7144,275.02 58.5,280.5C 56.7184,285.034 56.2184,289.701 57,294.5C 57.6914,296.891 58.6914,296.891 60,294.5C 59.5425,284.052 59.3758,273.552 59.5,263C 61.4189,261.121 63.4189,259.288 65.5,257.5C 67.5295,258.172 69.5295,258.838 71.5,259.5C 71.0016,272.531 71.5016,285.531 73,298.5C 70.2809,299.444 67.4475,299.777 64.5,299.5C 64.6427,301.262 64.3094,302.929 63.5,304.5C 65.1376,305.705 65.4709,307.038 64.5,308.5C 65.5,309.333 66.5,310.167 67.5,311C 65.0087,311.626 65.0087,312.459 67.5,313.5C 66.4798,315.432 66.3131,317.432 67,319.5C 68.425,318.788 69.925,318.621 71.5,319C 70.8576,315.543 71.5243,312.21 73.5,309C 74.6667,308.833 75.8333,308.667 77,308.5C 78.6811,308.608 79.8478,309.275 80.5,310.5C 88.4197,312.075 91.4197,316.741 89.5,324.5C 87.5476,326.126 86.2143,328.126 85.5,330.5C 83.1591,330.992 81.1591,332.159 79.5,334C 82.9752,334.447 86.3085,335.28 89.5,336.5C 89.1951,332.773 90.6951,330.106 94,328.5C 93.4781,330.049 93.6447,331.549 94.5,333C 93.3867,334.394 92.0534,335.561 90.5,336.5C 90.8333,337.5 91.5,338.167 92.5,338.5C 93.7321,337.855 95.0654,337.689 96.5,338C 97.4581,336.853 97.1247,335.853 95.5,335C 96.8925,332.334 98.5592,329.834 100.5,327.5C 101.941,331.851 103.274,336.184 104.5,340.5C 110.787,341.023 116.621,339.356 122,335.5C 123.347,337.193 123.847,338.86 123.5,340.5C 129.262,341.119 134.929,340.452 140.5,338.5C 136.833,340.345 132.833,341.512 128.5,342C 111.158,345.37 94.4911,343.37 78.5,336C 73.2069,332.264 67.5402,329.264 61.5,327C 56,321.5 50.5,316 45,310.5C 41.7226,305.586 38.2226,300.92 34.5,296.5C 28.1064,272.328 30.2731,248.995 41,226.5C 41.7083,225.619 42.5416,224.953 43.5,224.5 Z"
    />
</g>
<g>
    <path 
        style="opacity:1" 
        fill="#e9f8f1" 
        d="M 65.5,260.5 C 67.451,260.227 68.951,260.893 70,262.5C 69.9897,273.266 70.823,283.933 72.5,294.5C 72.4302,295.772 72.0968,296.938 71.5,298C 69.8659,298.494 68.1992,298.66 66.5,298.5C 62.6919,287.163 61.5252,275.497 63,263.5C 63.6979,262.309 64.5313,261.309 65.5,260.5 Z"
    />
</g>
<g>
    <path 
        style="opacity:1" 
        fill="#34805d" 
        d="M 233.5,247.5 C 240.496,254.328 247.663,260.995 255,267.5C 255.667,268.833 255.667,270.167 255,271.5C 251.962,274.369 249.129,277.369 246.5,280.5C 237.161,289.839 228.161,299.506 219.5,309.5C 205.675,323.825 191.675,337.992 177.5,352C 141.976,374.97 106.309,375.304 70.5,353C 54.8544,340.497 43.521,324.997 36.5,306.5C 36.0405,303.123 35.3739,299.789 34.5,296.5C 38.2226,300.92 41.7226,305.586 45,310.5C 50.5,316 56,321.5 61.5,327C 67.5402,329.264 73.2069,332.264 78.5,336C 94.4911,343.37 111.158,345.37 128.5,342C 132.833,341.512 136.833,340.345 140.5,338.5C 145.408,337.362 150.074,335.529 154.5,333C 160.862,328.817 166.862,324.15 172.5,319C 192.667,297.5 212.833,276 233,254.5C 234.807,252.26 234.974,249.927 233.5,247.5 Z"
    />
</g>
<g>
    <path 
        style="opacity:1" 
        fill="#eef9f3" 
        d="M 80.5,310.5 C 83.1731,313.506 85.8398,316.506 88.5,319.5C 88.0201,322.492 86.3534,323.659 83.5,323C 81,320.5 78.5,318 76,315.5C 74.8228,311.508 76.3228,309.842 80.5,310.5 Z"
    />
</g>
</svg>
