<svg xmlns="http://www.w3.org/2000/svg" fill="none" viewBox="0 0 512 512">
  <path
    fill="#ecb244"
    d="M256 512c141.3856 0 256 -114.6144 256 -256 0 -141.38496 -114.6144 -256 -256 -256C114.61504 0 0 114.61504 0 256c0 141.3856 114.61504 256 256 256Z"
    stroke-width="16"
  ></path>
  <path
    fill="#ffffff"
    d="M241.536 317.536h100.752v53.6h-62c1.024 15.328 1.552 29.552 2.576 44.864h-52.176v-44.32h-62.016c0 -17.488 -2.064 -34.992 1.04 -51.408 1.552 -8.752 10.848 -16.416 16.528 -24.064 19.6528 -24.5584 39.4608 -48.9904 59.424 -73.296 7.76 -9.312 15.504 -18.064 24.288 -28.448h-96.64v-53.6h57.376V96h50.112v43.76h62.528c0 18.048 2.064 35.552 -1.04 51.968 -1.552 8.752 -10.848 16.416 -17.04 24.064 -19.6512 24.5584 -39.4592 48.9904 -59.424 73.296 -7.7952 9.736 -15.8944 19.2224 -24.288 28.448Z"
    stroke-width="16"
  ></path>
</svg>
